<?xml version="1.0" encoding="utf-8"?>
<!-- Generator: Adobe Illustrator 21.0.2, SVG Export Plug-In . SVG Version: 6.00 Build 0)  -->
<svg version="1.1" id="Layer_1" xmlns="http://www.w3.org/2000/svg" xmlns:xlink="http://www.w3.org/1999/xlink" x="0px" y="0px"
	 viewBox="0 0 1200 247" style="enable-background:new 0 0 1200 247;" xml:space="preserve">
<style type="text/css">
	.st0{fill:#FEFEFE;}
	.st1{fill:#002D64;}
	.st2{fill:#002D63;}
	.st3{fill:#952D90;}
	.st4{fill:#962E91;}
	.st5{fill:#972F92;}
	.st6{fill:#9B3896;}
</style>
<g>
	<path class="st0" d="M1200,150c0,30.8-0.1,61.7,0.1,92.5c0,3.8-0.8,4.6-4.6,4.6C843.3,247,491.2,247,139,247
		c0.2-2.8,2.6-2.2,4.1-2.5c22.5-4,42.6-13,60.1-27.8c16.1-13.7,27.8-30.4,35.1-50.2c10.6-28.7,11-57.7-0.2-86
		C221.2,37.6,189.3,12,144.2,2.9c-3.6-0.7-4.9,0.6-4.9,4.1c0.1,9.7,0.1,19.3,0,29c-0.1,4,2.2,5,5.4,5.9c19.9,5.4,35.8,16.4,48,33.1
		c23.2,31.6,19.6,78.7-7.8,106.7c-11.7,11.9-25.3,20-41.3,24c-3.2,0.8-4.3,2.4-4.3,5.6c0.1,9.7,0.1,19.3,0,29c0,2.3,0.2,4.7-1.3,6.7
		c-3.7,0-7.3,0-11,0c-1.7-1.9-1.5-4.3-1.5-6.6c0-20,0-40,0-60c0-4.6,0.8-8.3,6.3-9.1c1-0.1,2-0.6,1.9-1.9c-0.1-1.3-1.2-1.6-2.2-1.7
		c-5.2-0.3-6-3.8-5.9-8c0.1-5.8,0-11.7,0.1-17.5c0.1-3,0.6-5.7,4-6.7c1.3-0.4,2.5-1.1,2.4-2.8c-0.1-1.4-1.3-1.7-2.3-2.3
		c-3.7-2-4.9-5.5-3.8-10.1c1-4,4.2-3.7,7.1-3.9c2.8-0.1,5.7,0.1,8.5-0.1c1.3-0.1,3,0.1,3.1-1.7c0.1-1.8-1.7-1.8-2.9-1.9
		c-3-0.3-6,0-9-0.2c-5.2-0.3-6.8-1.8-7-7.1c-0.3-5.7-0.1-11.3-0.1-17c0-3.6,0.4-6.9,4-9.1c2-1.2,1.6-2.8-0.2-3.9
		c-3.7-2.1-3.8-5.6-3.8-9.1c0-19.2,0-38.3-0.1-57.5c0-2.2,1.2-6.1-2.1-6.1c-2.7,0-1.7,3.8-1.7,5.9c-0.1,19.3,0,38.7-0.1,58
		c0,7.9-0.9,8.8-9,8.9c-8.2,0-16.3,0-24.5,0c-1.5,0-3-0.1-4.5,0.4c-0.7,0.2-1.2,0.6-1.2,1.4c0,0.7,0.4,1.2,1.1,1.5
		c1.6,0.7,3.3,0.5,4.9,0.6c8.5,0,17-0.1,25.5,0.1c6.7,0.1,9.7,4.9,7.1,11.1c-1.1,2.7-3.5,2.8-5.8,2.9c-6.8,0.2-13.7,0-20.5,0.1
		c-1.2,0-2.3-0.1-3.5,0.1c-1.4,0.2-3.5-0.2-3.5,1.9c0,2,2.1,1.8,3.5,1.8c7.5,0.2,15-0.1,22.5,0.1c6.1,0.2,7.8,2,7.8,7.8
		c0,5.6-1.3,7-7,7.2c-2.8,0.1-5.7-0.1-8.5,0.2c-1.1,0.1-2.5,0.2-2.5,1.8c0,1.6,1.5,1.7,2.6,1.8c3.2,0.3,6.3,0,9.5,0.2
		c4.7,0.3,5.9,1.8,6,6.8c0.1,5.3-1.2,7-6.1,7.2c-8.8,0.3-17.7,0.1-26.5,0.1c-1.5,0-3-0.1-4.5,0.2c-1.2,0.2-2.3,0.7-2.2,2.2
		c0.1,1.4,1.1,1.9,2.3,2.2c1.5,0.3,3,0.3,4.5,0.3c8.3,0,16.7-0.1,25,0c6.2,0.1,7.3,1.2,7.5,7.3c0.1,5.8,0,11.7,0,17.5
		c0,3.4-0.6,6.2-4.4,7.5c-2.7,0.9-2.3,2.8,0.1,3.6c3.6,1.2,4.3,3.8,4.3,7c0,21.2,0.1,42.3,0,63.5c0,1.8-0.2,3.7-1.5,5.1
		c-4.3,0-8.7,0-13,0c1.3-11.9,0.3-23.9,0.7-35.9c0.1-3.9-2-5.1-5.3-5.9c-14.8-3.9-27.8-11.1-38.6-22c-30.9-31.1-32.6-81.4-4.5-114.1
		c11.4-13.3,25.4-22.3,42.3-26.9c5.7-1.6,6-1.8,6-7.9c0-9-0.1-18,0-27c0.1-3.8-1.2-5-5.1-4.2c-40.2,8-69.8,29.8-88.5,66.4
		c-5.2,10.2-8.3,21-10.8,32.1c-0.5,2.1-0.1,4.9-3.3,5.4C0,72.2,0,37.3-0.1,2.5c0-3,0.6-3.6,3.6-3.6c397.7,0.1,795.3,0.1,1193,0
		c3,0,3.6,0.6,3.6,3.6c-0.1,40.8-0.1,81.7-0.1,122.5c-3.6-1.1-2.9-4.5-3.5-7c-2.7-10.4-7.3-19.7-15.8-26.6
		c-18.7-14.9-48.3-13.7-66.4,2.8c-12.1,10.9-18.4,24.6-19.9,40.7c-1,10.6-0.1,21,3.4,31c7.8,22.5,24.2,34.6,47.3,37.4
		c15.3,1.9,29.9-1.3,43.4-8.8c5.3-2.9,5.3-3.2,2.7-8.5c-1.6-3.3-3.7-6.3-5.3-9.6c-1.6-3.4-3.6-3.7-6.8-2.1c-7.3,3.7-15,5.2-23.2,5
		c-14-0.4-24.4-7.9-28.9-21.2c-1.9-5.5-0.6-7.5,5.3-7.5c15.8-0.1,31.7,0,47.5-0.1C1186.4,150.6,1193.2,150.9,1200,150z"/>
	<path class="st1" d="M138,247c0.1-12.5,0.2-25,0.1-37.5c0-2.9,0.5-4,3.8-4.9c35-9.2,57-31.6,63.6-67.1
		c7.8-42.1-18.9-83.6-61.7-94.4c-4.6-1.1-6-2.7-5.8-7.4c0.4-10.1,0.3-20.3,0.1-30.5c-0.1-3.5,0.8-4.6,4.4-4
		c53,8.7,94.5,48.8,103.1,101.6c11.7,71.1-36.6,131.1-99.3,142.4c-2.4,0.4-5.3-0.1-7.4,1.8C138.7,247,138.3,247,138,247z"/>
	<path class="st1" d="M0,107c2.8-3,2.2-7.1,2.9-10.6C13.4,47.6,56,7.9,105.3,1.1c3.4-0.5,3.8,0.7,3.8,3.6c-0.2,10.3-0.3,20.7,0.1,31
		c0.2,4.6-1.1,6.2-5.7,7.4C72.1,51.9,51.2,72,43.2,103.5c-11.6,45.7,16.3,90.2,62.3,101.1c3.1,0.7,3.6,1.8,3.5,4.5
		c-0.1,11.2-0.1,22.3,0,33.5c0,2.1-0.8,3.2-2.1,4.4c-0.3,0-0.7,0-1,0c-23.3-2.7-43.7-12.2-61.7-27C23,202.4,9,180,2.2,153.2
		c-1.1-4.3-0.8-8.9-2.2-13.2C0,129,0,118,0,107z"/>
	<path class="st2" d="M1200,150c-1.3,2.1-3.3,2.1-5.5,2.1c-21-0.1-42,0.1-63-0.1c-4.3,0-4.9,1.1-3.7,5c5.6,17.9,20.3,23.2,38.1,20.5
		c5.5-0.8,10.6-3,15.3-5.8c2.2-1.3,3.1-0.9,4.1,1.2c2.8,5.4,5.8,10.8,8.9,16.1c1.2,2,1,3-1,4.3c-26.3,16.7-64.4,16.9-85.7-7.1
		c-10.3-11.7-14.7-25.6-15-40.8c-0.6-24.8,7.6-45.5,29.8-58.7c20.4-12.1,47.7-8.9,63.1,7.2c7.6,8,11.3,17.9,13.4,28.5
		c0.2,0.9-0.3,2.1,1.1,2.5C1200,133.3,1200,141.7,1200,150z"/>
	<path class="st0" d="M0,140c2,1.3,1.6,3.5,1.9,5.3c8.2,49.5,48.8,90.8,98.3,99.8c2,0.4,4.3,0,5.8,1.9c-34.1,0-68.2,0-102.3,0.1
		c-3.1,0-3.8-0.7-3.8-3.8C0,208.8,0,174.4,0,140z"/>
	<path class="st3" d="M120,247c0-23.2,0-46.3,0.1-69.5c0-3.2-0.7-4.8-4.1-4.3c-3.1,0.4-2.9-1.6-3-3.7c-0.1-2.6,0.7-3.8,3.4-3.4
		c3.3,0.5,3.8-1.1,3.8-4c-0.2-7-0.2-14,0-21c0.1-3.5-0.9-4.6-4.4-4.5c-10.3,0.2-20.7,0-31,0.1c-2.8,0-4.6-0.1-4.7-3.9
		c0-3.9,2-3.8,4.7-3.7c10.5,0.1,21-0.2,31.5,0.1c5.4,0.2,3.6-3.4,3.8-6c0.2-2.8,0.8-5.8-4-5.3c-4.1,0.4-8.3,0-12.5,0.1
		c-2.6,0.1-3-1.2-3-3.3c0.1-2.1-0.1-4,3-3.8c4.3,0.2,8.7-0.1,13,0.1c2.6,0.1,3.7-0.7,3.5-3.4c-0.1-1.5-0.2-3,0-4.5
		c0.3-2.9-1-3.7-3.7-3.7c-8.8,0.1-17.7,0-26.5,0c-2.3,0-4.6,0.5-4.7-3.3c-0.1-3.8,1.8-3.9,4.7-3.9c8.7,0.1,17.3-0.1,26,0.1
		c3.2,0.1,4.4-0.7,4.3-4.1c-0.3-8.7,0.7-7.1-7.1-7.2c-9.2-0.1-18.3,0-27.5-0.1c-2.3,0-5.4,1.3-5.4-3.4c-0.1-5,3.2-3.6,5.7-3.6
		c10-0.1,20-0.2,30,0c3.6,0.1,4.4-1.2,4.4-4.6c-0.1-21.5-0.1-43-0.1-64.5c0-2.6-0.7-5.2,3.8-5.1c4.2,0.1,3.4,2.5,3.4,4.9
		c0,21.2,0,42.3,0,63.5c0,3-0.7,6.2,4.2,5.8c2.6-0.2,1.5,2.4,1.6,3.8c0.1,1.4,0.4,3.4-2,3.1c-3.7-0.4-4,1.7-3.9,4.5
		c0.1,7.2,0.2,14.3,0,21.5c-0.1,3.1,1,4.1,4.1,4c4-0.2,8,0.1,12-0.1c2.6-0.1,3.9,0.4,3.9,3.5c-0.1,2.8-0.8,3.8-3.6,3.7
		c-4-0.2-8,0.1-12-0.1c-3.3-0.2-4.5,0.8-4.3,4.1c0.3,3.6-1.2,8,5.3,7.2c2.8-0.3,1.6,2.7,1.8,4.3c0.3,1.9-0.4,3.4-2.7,3.1
		c-4.2-0.6-4.6,1.6-4.5,5c0.2,6.7,0.2,13.3,0,20c-0.1,3.4,0.7,5,4.4,4.5c2.4-0.3,4.5-0.4,4.5,3.3c0,3.3-1.3,4.2-4.1,3.7
		c-3.8-0.6-4.8,1.1-4.7,4.8c0.1,22.3,0.1,44.7,0.1,67c0,0.7-0.1,1.3-0.2,2C124.7,247,122.3,247,120,247z"/>
	<path class="st1" d="M693.1,95.5c7.5-6.1,14.5-11.2,23.1-13.8c8.5-2.6,17.1-2.8,25.6-0.5c10.6,2.9,17.3,10.2,21,20.3
		c2.9,7.9,4.1,16.1,4.1,24.5c0,24-0.1,48,0.1,72c0,3.5-0.9,4.5-4.4,4.4c-9-0.3-18-0.2-27,0c-3.3,0.1-4.2-0.9-4.2-4.2
		c0.1-21.2,0.1-42.3,0-63.5c0-3.5-0.2-7-0.6-10.5c-1.1-11.8-8.7-16.8-20.2-13.8c-6.2,1.6-10.7,5.9-15.3,9.9
		c-1.8,1.5-1.1,3.7-1.1,5.7c0,23.7-0.2,47.3,0.1,71c0.1,4.6-1.4,5.5-5.6,5.3c-8.3-0.3-16.7-0.3-25,0c-3.8,0.1-5-0.8-5-4.8
		c0.2-31,0.1-62,0.1-93c0-22.3,0.1-44.7-0.1-67c0-3.6,0.6-4.9,4.5-4.7c8.8,0.3,17.7,0.3,26.5,0c3.4-0.1,4.6,0.7,4.4,4.3
		c-0.6,17.3,0.9,34.6-1.2,51.9C693,90.9,693.1,92.8,693.1,95.5z"/>
	<path class="st1" d="M408.5,160.9c5.8,6.3,11.5,12.7,17.3,18.7c2.4,2.5,1,3.8-0.7,5.7c-20.1,21.1-49.6,25-77.1,14.5
		c-17.6-6.8-30.4-19.3-37.1-36.9c-11-28.5-10.6-57,4.1-84.3c19.8-36.9,73.3-50.5,107.3-19.2c2.5,2.3,3,3.6,0.5,6.2
		c-5.2,5.4-10.1,11.1-15,16.7c-1.3,1.5-2.3,2.1-4,0.4c-18.3-18.6-52.2-12.5-61.2,21.1c-4.2,15.9-3.8,31.6,2.2,47
		c9.7,24.9,38.3,31.8,58.5,14.3C405.1,163.8,406.8,162.4,408.5,160.9z"/>
	<path class="st1" d="M1007.4,97.8c4.9-3.7,9.1-7.2,13.6-10.3c9.9-6.8,21-9.1,32.8-7.5c14.2,1.9,22.8,10.6,27,24
		c2.1,6.7,3.1,13.6,3.1,20.6c0.1,24.5-0.1,49,0.1,73.5c0,3.7-1.2,4.3-4.5,4.2c-8.8-0.2-17.7-0.3-26.5,0c-3.6,0.1-4.4-1-4.4-4.4
		c0.2-19.7,0.1-39.3,0-59c0-4.8-0.4-9.6-0.7-14.4c-0.9-11.8-8.4-17.2-19.9-14.2c-6.2,1.6-10.8,5.7-15.4,9.8
		c-1.8,1.6-1.3,3.6-1.3,5.6c0,23.8-0.1,47.6,0.1,71.5c0,4.2-1.1,5.3-5.2,5.1c-8.6-0.3-17.3-0.2-26,0c-3.1,0.1-4.3-0.5-4.3-4
		c0.1-37.3,0.1-74.6,0-111.9c0-3.3,0.8-4.3,4.1-4.2c7,0.2,14,0.2,21,0c3-0.1,4.1,0.9,4.4,3.8C1005.9,89.7,1006.7,93.5,1007.4,97.8z"
		/>
	<path class="st1" d="M543.2,142.7c-0.1,21.1-6.9,39.2-24.5,51.9c-31.4,22.7-82.1,9.2-90.6-37.4c-4-22-0.9-43,15.3-59.9
		c15.5-16.2,34.9-20.9,56.3-15.6c21.7,5.4,35,20,41.2,41.3C542.8,129.3,543.5,135.9,543.2,142.7z"/>
	<path class="st1" d="M931.6,190.2c-7.9,6.4-16.1,11.9-26.2,14.1c-18.2,4.1-35.6-4.3-41.9-20.5c-7.1-18.5-1-36.4,15.9-45.9
		c13.3-7.5,28-10.1,42.9-11.9c6.4-0.8,6.8-1.1,4.6-7.3c-3.1-8.7-12.1-12.7-23.7-10.4c-8.1,1.6-15.6,4.7-22.6,8.8
		c-2.5,1.4-3.6,1.2-4.9-1.4c-3-6.1-6.4-12-9.6-18c-0.7-1.4-1.3-2.4,0.7-3.5c20.4-11.5,41.8-18,65.4-12.4c17.2,4.1,26,16.2,29.6,32.7
		c1.5,6.7,2,13.5,2,20.3c0,21-0.1,42,0.1,63c0,3.8-1,4.8-4.7,4.7c-6.7-0.3-13.3-0.3-20,0c-3.6,0.2-5-1-5.5-4.5
		C933.5,195.4,933.4,192.6,931.6,190.2z"/>
	<path class="st1" d="M635.9,168.1c4.3,6.7,8.6,13.6,13,20.4c1.2,1.8,0.2,2.6-1.1,3.6c-18.5,13.7-38.8,16.9-60.4,9.1
		c-20.7-7.5-31.7-23.4-35.3-44.6c-3.3-19.7-0.8-38.5,12.1-54.8c16-20.1,46.8-27.9,70-17.9c3,1.3,6,3,8.7,4.9c5.7,4,5.7,4.1,1.6,9.7
		c-3.5,4.8-7.1,9.6-10.6,14.5c-1.1,1.5-1.9,2.5-3.8,0.9c-13.7-11.8-37.8-5.1-41.9,19.3c-1.5,8.6-1.2,17.3,2,25.6
		c6.2,16.2,21.8,22.3,37.3,14.5C630.2,171.7,632.8,169.9,635.9,168.1z"/>
	<path class="st1" d="M810.5,104c3.6-4.8,6.1-9.1,9.5-12.7c10-10.3,22-13.6,36-10.5c3.1,0.7,3.6,2,3,4.8c-1.6,7.8-3.1,15.6-4.4,23.4
		c-0.5,3.3-2.2,3.3-4.8,2.8c-15.3-3.1-26.2,2.3-33.3,16.1c-1.5,2.9-2.2,5.8-2.2,9.1c0.1,20.3,0,40.6,0.1,60.9c0,3.5-0.9,4.5-4.4,4.4
		c-9.1-0.2-18.3-0.2-27.5,0c-2.8,0-3.7-0.7-3.7-3.6c0.1-37.6,0.1-75.2,0-112.9c0-2.8,0.8-3.8,3.6-3.7c7.3,0.2,14.6,0.1,22,0
		c2.5,0,3.4,0.6,3.7,3.3C808.7,91.3,809.6,97,810.5,104z"/>
	<path class="st4" d="M94.3,155c-5.3,0-10.6-0.1-15.9,0.1c-2.8,0.1-3.2-1.2-3.2-3.6c0-2.3,0.3-3.7,3.2-3.7c10.6,0.1,21.3,0.1,31.9,0
		c2.7,0,3,1.2,2.9,3.4c-0.1,2,0.4,4-2.9,3.9C104.9,154.8,99.6,155,94.3,155z"/>
	<path class="st5" d="M114.8,189.1c-0.1,1-7,7.7-7.6,7.2c-2.6-2.2-5.5-4.2-7-7.5c-0.4-0.9,6.7-7.4,7.6-7.2
		C108.7,181.8,114.9,188.4,114.8,189.1z"/>
	<path class="st6" d="M110.9,62.8c-2.5-0.3-5.7,1.2-5.8-3.7c-0.1-5.6,3.6-3.9,6.4-4c2.5,0,5.6-1.4,5.6,3.6
		C117.3,64.4,113.6,62.5,110.9,62.8z"/>
	<path class="st0" d="M1148.1,130.1c-6.2,0-12.3-0.1-18.5,0c-2.1,0-2.9-0.5-2.6-2.8c1.1-9.1,9.1-18.3,17.8-20.2
		c13.9-3,24.9,6,25.1,20.3c0,2.4-0.8,2.7-2.8,2.7C1160.8,130,1154.4,130.1,1148.1,130.1z"/>
	<path class="st0" d="M507.1,143.7c0.1,7.3-0.9,15.4-5,22.7c-3.7,6.7-9.5,10.3-17,10.3c-7.8-0.1-13.9-3.7-17.1-10.9
		c-6.9-15.5-7.1-31.4,0.1-46.8c6.6-13.9,24.9-14.5,33.3-1.6C506.3,125.2,507.1,133.9,507.1,143.7z"/>
	<path class="st0" d="M928.4,158.4c-0.9,3.5,1.7,8.1-2.7,11.9c-5.6,4.7-11.4,8.2-18.8,7.6c-5-0.4-9.5-2-11.5-7.3
		c-1.8-5-0.1-10.6,4.3-14.4c3.3-2.9,7.4-4.5,11.4-5.9c1.7-0.6,3.5-0.9,5.3-1.4C928.4,145.8,928.4,145.8,928.4,158.4z"/>
</g>
</svg>
