<?xml version="1.0" standalone="no"?>
<!DOCTYPE svg PUBLIC "-//W3C//DTD SVG 1.1//EN" "http://www.w3.org/Graphics/SVG/1.1/DTD/svg11.dtd" >
<svg xmlns="http://www.w3.org/2000/svg">
<metadata></metadata>
<defs>
<font id="interfacebold" horiz-adv-x="1105" >
<font-face units-per-em="2048" ascent="1638" descent="-410" />
<missing-glyph horiz-adv-x="409" />
<glyph unicode="&#xfb01;" horiz-adv-x="1159" d="M33 782v205h137v35q0 102 36 174t95 116t136 63.5t161 19.5q133 0 218 -28t140 -67l-125 -194q-37 29 -90 46t-125 17t-126 -34.5t-54 -122.5v-25h223v-205h-221v-782h-268v782h-137zM760 0v987h266v-987h-266z" />
<glyph unicode="&#xfb02;" horiz-adv-x="1157" d="M33 782v205h139v31q0 113 48 186.5t123 114.5t167 57.5t180 16.5q78 0 168 -8.5t166 -22.5v-1362h-266v1157q-25 4 -55.5 5t-53.5 1q-90 0 -151.5 -33.5t-61.5 -117.5v-25h209v-205h-207v-782h-268v782h-137z" />
<glyph unicode="&#xfb03;" horiz-adv-x="1851" d="M33 782v205h137v35q0 98 26.5 168t72.5 116t108.5 67.5t136.5 21.5q98 0 171 -15.5t132 -44.5l-78 -205q-82 41 -182 41q-51 0 -86 -33.5t-35 -117.5v-33h426v35q0 102 36 174t95.5 116t136 63.5t160.5 19.5q133 0 218 -28t141 -67l-125 -194q-37 29 -90.5 46t-124.5 17 q-72 0 -126.5 -34.5t-54.5 -122.5v-25h224v-205h-222v-782h-268v782h-424v-782h-268v782h-137zM1452 0v987h266v-987h-266z" />
<glyph unicode="&#xfb04;" horiz-adv-x="1849" d="M33 782v205h137v35q0 98 26.5 168t72.5 116t108.5 67.5t136.5 21.5q98 0 171 -15.5t132 -44.5l-78 -205q-82 41 -182 41q-51 0 -86 -33.5t-35 -117.5v-33h428v31q0 113 48.5 186.5t123 114.5t166.5 57.5t180 16.5q78 0 168 -8.5t166 -22.5v-1362h-266v1157q-25 4 -55.5 5 t-53.5 1q-90 0 -151.5 -33.5t-61.5 -117.5v-25h209v-205h-207v-782h-268v782h-424v-782h-268v782h-137z" />
<glyph unicode="&#xd;" horiz-adv-x="409" />
<glyph horiz-adv-x="0" />
<glyph horiz-adv-x="0" />
<glyph unicode=" "  horiz-adv-x="409" />
<glyph unicode="&#x09;" horiz-adv-x="409" />
<glyph unicode="&#xa0;" horiz-adv-x="409" />
<glyph unicode="!" horiz-adv-x="493" d="M80 143q0 66 47 116t121 50q37 0 66.5 -14t52 -36.5t35 -52.5t12.5 -63t-12.5 -62.5t-35 -53t-52 -37t-66.5 -13.5q-74 0 -121 50.5t-47 115.5zM115 432v934h270v-934h-270z" />
<glyph unicode="&#x22;" horiz-adv-x="851" d="M92 760v606h256v-606h-256zM504 760v606h256v-606h-256z" />
<glyph unicode="#" horiz-adv-x="1374" d="M72 422v233h284v207h-284v232h284v272h234v-272h205v272h231v-272h287v-232h-287v-207h287v-233h-287v-270h-231v270h-205v-270h-234v270h-284zM590 655h205v207h-205v-207z" />
<glyph unicode="$" d="M43 248l217 131q57 -92 130 -129t165 -37q98 0 156.5 38t58.5 103q0 45 -16.5 78t-45 57.5t-65.5 42t-76 33.5q-80 33 -164 66t-152.5 81t-112.5 118.5t-44 181.5q0 84 32 148.5t85 110.5t122.5 73.5t143.5 39.5v302h187v-295q121 -14 223 -75t162 -171l-226 -117 q-47 72 -110.5 101.5t-139.5 29.5q-92 0 -149 -37t-57 -102q0 -35 19.5 -61.5t48 -47t61 -35t59.5 -24.5q86 -35 173 -71t158.5 -88t117 -129t45.5 -193q0 -86 -32 -153.5t-85 -117t-123 -79t-145 -41.5v-265h-187v262q-135 16 -248.5 79t-185.5 192z" />
<glyph unicode="%" horiz-adv-x="1515" d="M8 1061q0 61 21.5 118.5t64.5 102.5t107.5 72.5t150.5 27.5t150.5 -27.5t107.5 -72.5t64.5 -102.5t21.5 -116.5q0 -61 -21.5 -118.5t-64.5 -102.5t-107.5 -73t-150.5 -28q-85 0 -151 27q-63 29 -106.5 74t-65 102t-21.5 117zM25 135l1341 1249l139 -141l-1347 -1251z M227 1065q0 -53 29 -100q31 -47 94 -47q61 0 92 47t31 100t-30.5 99t-92.5 46q-63 0 -93 -46t-30 -99zM821 303q0 59 21.5 117.5t64.5 103.5t108.5 73t151.5 28t149.5 -28t106.5 -73t64.5 -102t21.5 -117q0 -61 -21.5 -118.5t-64.5 -102.5t-107.5 -72.5t-150.5 -27.5 q-85 -1 -151 26q-63 29 -106.5 74t-65 102.5t-21.5 116.5zM1040 305q0 -53 31 -100q31 -45 92 -45t92 46t31 99t-30.5 99.5t-92.5 46.5q-61 0 -92 -46.5t-31 -99.5z" />
<glyph unicode="&#x26;" horiz-adv-x="1368" d="M78 383q0 123 70.5 244t224.5 207q-41 51 -73 109t-32 132q0 68 28 122t75 91t112.5 57.5t141.5 20.5t132 -14.5t99 -41t75 -62.5t56 -81l-209 -116q-27 51 -64.5 83.5t-88.5 32.5q-43 0 -72 -22.5t-29 -61.5q0 -29 15.5 -58.5t44.5 -63.5l280 -363q57 104 124 198.5 t159 155.5l139 -188q-84 -68 -145.5 -166t-120.5 -203l303 -395h-311l-135 176q-35 -43 -69 -80t-77 -63.5t-98 -41t-133 -14.5q-98 0 -177 34t-133.5 89.5t-83 129t-28.5 153.5zM342 381q0 -37 11.5 -69.5t34 -58.5t55 -41t73.5 -15q70 0 118 49t95 121l-215 282 q-88 -53 -130 -125.5t-42 -142.5z" />
<glyph unicode="'" horiz-adv-x="460" d="M102 760v606h256v-606h-256z" />
<glyph unicode="(" horiz-adv-x="638" d="M82 698q0 285 130 492t366 323l79 -167q-147 -104 -226 -262t-79 -386q0 -231 80 -387.5t227 -261.5l-81 -166q-236 117 -366 323t-130 492z" />
<glyph unicode=")" horiz-adv-x="638" d="M-20 49q147 104 227 261t80 388q0 227 -79 385t-226 263l79 167q236 -117 366 -323.5t130 -491.5q0 -287 -130 -492.5t-366 -322.5z" />
<glyph unicode="*" horiz-adv-x="931" d="M55 1235l117 166l188 -121v205h203v-205l195 121l119 -166l-226 -137l219 -137l-104 -177l-203 125v-215h-203v215l-196 -125l-105 177l224 135z" />
<glyph unicode="+" d="M47 563v225h393v412h224v-412h393v-225h-393v-405h-224v405h-393z" />
<glyph unicode="," horiz-adv-x="477" d="M6 -111q47 10 91 35t65 49q-29 20 -45.5 57.5t-16.5 78.5q0 61 37 113t111 52q66 0 108.5 -47t42.5 -114q0 -43 -20.5 -91.5t-63.5 -92.5t-111.5 -83t-162.5 -63z" />
<glyph unicode="-" horiz-adv-x="675" d="M78 412v243h520v-243h-520z" />
<glyph unicode="." horiz-adv-x="454" d="M78 125q0 57 37 103t114 46q74 0 111 -46t37 -103q0 -55 -36 -101.5t-112 -46.5q-78 0 -114.5 46.5t-36.5 101.5z" />
<glyph unicode="/" horiz-adv-x="1112" d="M0 51l909 1518l203 -109l-905 -1526z" />
<glyph unicode="0" d="M39 676q0 123 26.5 248t86 226t158 165.5t243.5 64.5q143 0 242.5 -64.5t159 -165.5t86 -226t26.5 -248t-26.5 -248t-86 -226.5t-159 -166t-242.5 -64.5q-146 1 -244 64q-98 66 -157.5 167t-86 226t-26.5 248zM319 678q0 -98 13.5 -183t42.5 -151q29 -63 73 -100t105 -37 t105 37t73 101.5t42 149.5t13 183t-13 183t-40.5 147.5t-73 99.5t-106.5 37t-106.5 -37t-73 -99.5t-41 -147.5t-13.5 -183z" />
<glyph unicode="1" d="M135 1083l451 273h215v-1356h-281v1040l-258 -155z" />
<glyph unicode="2" d="M51 1063q33 63 81 121.5t112.5 101.5t146.5 68.5t182 25.5q88 0 167 -24.5t137.5 -73.5t93.5 -120.5t35 -166.5q0 -115 -50.5 -225.5t-136.5 -214.5q-72 -88 -153.5 -171t-147.5 -153h526v-231h-927v160q123 129 249 262t228 264q53 70 91 138.5t38 152.5q0 78 -46 123 t-132 45q-76 0 -146.5 -56.5t-124.5 -146.5z" />
<glyph unicode="3" d="M29 264l219 127q66 -109 138.5 -146.5t152.5 -37.5q92 0 154.5 48t62.5 132q0 94 -78 144.5t-219 52.5v207q135 10 204.5 63t69.5 141q0 68 -50 108t-142 40q-72 0 -134.5 -40t-115.5 -138l-219 127q84 154 216 221t290 67q88 0 165.5 -25.5t137 -72.5t94.5 -115.5 t35 -154.5q0 -131 -49.5 -206t-126.5 -104q80 -31 139 -102.5t59 -200.5q0 -104 -41 -184t-108.5 -132t-156.5 -79t-185 -27q-154 0 -287 63.5t-225 223.5z" />
<glyph unicode="4" d="M55 342v203l645 811h222v-778h141v-236h-141v-342h-269v342h-598zM369 578h284v362z" />
<glyph unicode="5" d="M78 233l219 134q55 -88 112.5 -123t133.5 -35q84 0 144.5 53t60.5 152q0 61 -19.5 110t-67 83t-126 52.5t-195.5 18.5h-176v678h792v-230h-548v-231h8q131 0 241.5 -26.5t191.5 -84t126 -145.5t45 -213q0 -111 -40 -195t-105.5 -140t-150.5 -85t-177 -29 q-66 0 -131.5 13.5t-126 43t-114.5 79t-97 120.5z" />
<glyph unicode="6" d="M100 487q0 143 46.5 289t138.5 270.5t231 214t328 119.5l55 -209q-160 -35 -285 -124t-180 -216q39 25 85 39.5t106 14.5q90 0 163.5 -34t125 -93.5t79 -141t27.5 -176.5q0 -92 -28.5 -175t-85 -147.5t-142.5 -102.5t-199 -38q-90 0 -174 29t-148.5 91.5t-103.5 158.5 t-39 231zM381 471q0 -68 16.5 -117t43 -80.5t60.5 -47t68 -15.5q78 0 126 55.5t48 153.5q0 111 -51 173t-131 62q-49 0 -94 -16q-45 -14 -72 -31q-6 -23 -10 -65.5t-4 -71.5z" />
<glyph unicode="7" d="M61 1126v230h977v-164l-532 -1192h-289l498 1126h-654z" />
<glyph unicode="8" d="M84 383q0 43 11 88t33.5 88t55.5 80t76 61q-82 59 -118 138.5t-36 152.5q0 76 32 145.5t90.5 124t141.5 87t185 32.5q100 0 183 -31.5t141.5 -85t90 -123t31.5 -145.5q0 -74 -37.5 -156.5t-115.5 -136.5q86 -51 130 -141t44 -176q0 -78 -30.5 -151.5t-91 -130 t-147.5 -91.5t-200 -35t-200 34t-147.5 91.5t-91 130t-30.5 150.5zM356 399q1 -78 50 -135q51 -55 149 -55t147.5 54t49.5 132t-53.5 135.5t-147.5 57.5q-92 0 -143.5 -56.5t-51.5 -132.5zM379 985q0 -33 11 -65.5t34 -59.5t54.5 -43t74.5 -16q41 0 73.5 17.5t55.5 44t35 59 t12 65.5q0 31 -12 61.5t-35 55t-55.5 40t-73.5 15.5t-72.5 -15.5t-54.5 -40t-35 -56t-12 -62.5z" />
<glyph unicode="9" d="M90 930q0 84 28.5 165t85 144.5t141.5 102t200 38.5q88 0 172 -29.5t148.5 -93t104.5 -161t40 -232.5q0 -152 -46 -296t-139.5 -264t-232.5 -207t-326 -120l-55 211q160 35 285 130.5t182 224.5q-37 -25 -89 -39.5t-104 -14.5q-96 0 -169.5 38t-124 99.5t-76 140.5 t-25.5 163zM369 932q0 -41 12 -79t34.5 -67.5t56.5 -48t77 -18.5q47 0 86 8q41 10 80 33q6 20 10 56t4 65q0 70 -17.5 120t-44 81.5t-59.5 47t-65 15.5q-41 0 -74 -18.5t-55.5 -48t-33.5 -68.5t-11 -78z" />
<glyph unicode=":" horiz-adv-x="454" d="M78 125q0 57 37 103t114 46q74 0 111 -46t37 -103q0 -55 -36 -101.5t-112 -46.5q-78 0 -114.5 46.5t-36.5 101.5zM78 838q0 57 37 103t114 46q74 0 111 -46t37 -103q0 -55 -36 -101.5t-112 -46.5q-78 0 -114.5 46t-36.5 102z" />
<glyph unicode=";" horiz-adv-x="477" d="M6 -111q47 10 91 35t65 49q-29 20 -45.5 57.5t-16.5 78.5q0 61 37 113t111 52q66 0 108.5 -47t42.5 -114q0 -43 -20.5 -91.5t-63.5 -92.5t-111.5 -83t-162.5 -63zM109 838q0 57 36.5 103t114.5 46q74 0 111 -46t37 -103q0 -55 -36 -101.5t-112 -46.5q-78 0 -114.5 46 t-36.5 102z" />
<glyph unicode="&#x3c;" d="M47 596v170l940 317l70 -225l-539 -174l559 -192l-71 -230z" />
<glyph unicode="=" d="M47 317v226h1010v-226h-1010zM47 758v225h1010v-225h-1010z" />
<glyph unicode="&#x3e;" d="M29 492l559 192l-539 174l70 225l940 -317v-170l-959 -334z" />
<glyph unicode="?" horiz-adv-x="864" d="M-25 1139q72 113 183.5 184.5t273.5 71.5q205 0 312.5 -102.5t107.5 -276.5q0 -51 -15.5 -94t-40 -82t-55 -73t-61.5 -65q-53 -57 -96 -109t-43 -112v-49h-260v86q0 41 13 80t33.5 73t44 62.5t44.5 48.5q29 31 58.5 57.5t53 55.5t39 59.5t15.5 69.5q0 72 -43 111t-123 39 q-59 0 -118.5 -34t-125.5 -132zM244 143q0 33 12 63t34.5 52.5t52.5 36.5t67 14q74 0 121 -50t47 -116t-47.5 -116t-120.5 -50q-37 1 -68 15q-29 12 -51.5 35.5t-34.5 53.5t-12 62z" />
<glyph unicode="@" horiz-adv-x="1665" d="M106 518q0 231 71 397t184.5 272.5t256 157t283.5 50.5q113 0 218.5 -24.5t187.5 -80t131 -145.5t49 -219v-899q0 -47 24.5 -75t71.5 -28q35 0 70 13.5t55 29.5l74 -196q-53 -29 -113.5 -48.5t-128.5 -19.5q-66 0 -123 17.5t-100 54.5t-67.5 92t-24.5 131v43 q-102 -41 -199 -41q-102 0 -180 41t-130 107.5t-79 151.5t-27 171q0 106 33 190t90.5 141.5t134 87.5t162.5 30q47 0 94 -8.5t101 -28.5v51q0 72 -30 117t-76 71.5t-104.5 35.5t-115.5 9q-90 0 -183 -36.5t-169 -114.5t-124 -203t-48 -299q0 -135 56 -268t142 -238 l-208 -141q-55 59 -102.5 134t-82.5 159t-54.5 175t-19.5 183zM879 467q0 -121 55 -185.5t133 -64.5q45 0 84 11.5t72 29.5v404q-35 16 -72 25t-84 9q-80 0 -134 -55t-54 -174z" />
<glyph unicode="A" horiz-adv-x="1327" d="M0 0l561 1366h195l569 -1366h-297l-110 274h-527l-112 -274h-279zM475 506h352l-176 448z" />
<glyph unicode="B" horiz-adv-x="1224" d="M158 0v1366h487q98 0 181 -24.5t142.5 -72.5t93.5 -117t34 -155q0 -92 -44 -159.5t-122 -114.5q111 -39 177.5 -124t66.5 -214q0 -109 -61.5 -207t-186.5 -145q-47 -16 -101.5 -24.5t-105.5 -8.5h-561zM430 233h197q72 0 112.5 6.5t67.5 20.5q45 25 65.5 60.5t20.5 74.5 q0 45 -25.5 88t-76.5 70q-33 16 -75 23.5t-93 7.5h-193v-351zM430 807h135q47 0 90 4t62 14q53 25 76.5 63t23.5 79q0 49 -31.5 91t-95.5 62q-10 2 -27.5 5t-39 4t-43 2.5t-37.5 1.5h-113v-326z" />
<glyph unicode="C" horiz-adv-x="1245" d="M92 678q0 184 50.5 318t133 223.5t192.5 132.5t226 43q94 0 170 -21.5t136.5 -62.5t106.5 -100.5t81 -135.5l-223 -125q-41 88 -101.5 145.5t-163.5 57.5q-63 0 -122.5 -28.5t-104.5 -88t-72.5 -148.5t-27.5 -210q0 -106 26.5 -192.5t72.5 -145.5t107.5 -92t133.5 -33 q39 0 74.5 8t68.5 29.5t63.5 57.5t61.5 93l215 -131q-92 -164 -209 -232.5t-285 -68.5q-135 0 -247.5 47.5t-193.5 138.5t-125 222t-44 299z" />
<glyph unicode="D" horiz-adv-x="1353" d="M158 0v1366h405q78 0 172 -12.5t180 -48.5q88 -41 155 -105.5t110 -145.5t64.5 -174.5t21.5 -189.5t-21.5 -189t-65.5 -176t-111 -148.5t-155 -106.5q-150 -70 -340 -70h-415zM434 246h111q150 0 248 51t145 156.5t47 224.5q0 117 -43 220t-133 161q-47 31 -116.5 46 t-141.5 15h-117v-874z" />
<glyph unicode="E" horiz-adv-x="1200" d="M158 0v1366h938v-248h-662v-311h547v-248h-547v-311h709v-248h-985z" />
<glyph unicode="F" horiz-adv-x="1097" d="M158 0v1366h929v-248h-653v-323h520v-244h-520v-551h-276z" />
<glyph unicode="G" horiz-adv-x="1284" d="M92 678q0 184 49 318t132 223.5t191.5 132.5t229.5 43q184 0 300 -74t188 -225l-224 -125q-41 86 -103 134t-155 48q-61 0 -120.5 -28.5t-105.5 -88t-73.5 -148.5t-27.5 -210q0 -106 28.5 -191.5t77.5 -145.5t114.5 -93t141.5 -33q66 0 120 6t89 17v245h-223v236h481 v-658q-84 -37 -200.5 -63.5t-296.5 -26.5q-131 0 -244 47.5t-195 138.5t-128 222t-46 299z" />
<glyph unicode="H" horiz-adv-x="1411" d="M158 0v1366h276v-541h543v541h276v-1366h-276v578h-543v-578h-276z" />
<glyph unicode="I" horiz-adv-x="591" d="M158 0v1366h276v-1366h-276z" />
<glyph unicode="J" horiz-adv-x="608" d="M-88 -59q143 29 202.5 88t59.5 153v1184h277v-1229q0 -96 -35 -168.5t-99.5 -125t-153.5 -85t-200 -51.5z" />
<glyph unicode="K" horiz-adv-x="1308" d="M158 0v1366h276v-522l524 522h328l-536 -532l563 -834h-312l-440 647l-127 -127v-520h-276z" />
<glyph unicode="L" horiz-adv-x="1132" d="M158 0v1366h276v-1118h688v-248h-964z" />
<glyph unicode="M" horiz-adv-x="1650" d="M158 0v1366h282l404 -909l364 909h285v-1366h-272v764l-330 -772h-98l-363 780v-772h-272z" />
<glyph unicode="N" horiz-adv-x="1423" d="M158 0v1366h282l553 -852v852h273v-1366h-242l-594 903v-903h-272z" />
<glyph unicode="O" horiz-adv-x="1447" d="M92 684q0 131 39 259t117 228.5t196.5 162t276.5 61.5q160 0 278.5 -61.5t198.5 -162t119 -228.5t39 -259t-39 -259t-119 -228.5t-198.5 -163t-278.5 -62.5q-158 1 -277 62q-119 63 -196.5 163.5t-116.5 228.5t-39 259zM371 684q0 -90 22.5 -175t67.5 -151t109.5 -104.5 t150.5 -38.5t152.5 39t111.5 104.5t67.5 150.5t22.5 175t-22.5 175t-67.5 150.5t-111.5 104.5t-152.5 39t-150.5 -39t-109.5 -104.5t-67.5 -150.5t-22.5 -175z" />
<glyph unicode="P" horiz-adv-x="1212" d="M158 0v1366h430q104 0 193 -13.5t169 -52.5q104 -49 153.5 -146t49.5 -208q0 -61 -16.5 -123.5t-47 -116t-75.5 -96.5t-103 -67q-72 -29 -145.5 -40t-149.5 -11h-188v-492h-270zM428 727h154q59 0 107 6t83 23q59 27 84 74t25 100q0 57 -28 106t-87 70q-35 12 -74 18 t-100 6h-164v-403z" />
<glyph unicode="Q" horiz-adv-x="1447" d="M92 684q0 131 39 259t117 228.5t196.5 162t276.5 61.5q160 0 278.5 -61.5t198.5 -162t119 -228.5t39 -259q0 -111 -29 -218.5t-85 -200.5t-140 -163.5t-195 -103.5q23 -43 88.5 -58.5t171.5 -15.5l-32 -219q-254 8 -387.5 81t-182.5 206q-119 29 -208 97.5t-147 162.5 t-88 205.5t-30 226.5zM371 684q0 -90 22.5 -175t67.5 -151t109.5 -104.5t150.5 -38.5t152.5 39t111.5 104.5t67.5 150.5t22.5 175t-22.5 175t-67.5 150.5t-111.5 104.5t-152.5 39t-150.5 -39t-109.5 -104.5t-67.5 -150.5t-22.5 -175z" />
<glyph unicode="R" horiz-adv-x="1275" d="M158 0v1366h555q86 0 172 -18.5t154.5 -64.5t112.5 -124t44 -198q0 -74 -18.5 -141.5t-56.5 -124t-98 -99.5t-144 -68l350 -528h-314l-337 512h-150v-512h-270zM428 748h211q150 0 217.5 47t67.5 139q0 98 -63.5 146t-221.5 48h-211v-380z" />
<glyph unicode="S" horiz-adv-x="1138" d="M53 223l211 139q47 -78 127 -117.5t180 -39.5q104 0 167 41t63 108q0 43 -14.5 76t-49.5 61.5t-96 56t-156 60.5q-88 31 -158.5 66t-120.5 82t-77 109.5t-27 148.5q0 84 30 153.5t90.5 120.5t150.5 79t211 28q100 0 177 -19.5t133 -52.5t97 -76t72 -90l-199 -141 q-43 66 -108.5 108.5t-173.5 42.5q-104 0 -158.5 -36.5t-54.5 -96.5q0 -72 69.5 -118t208.5 -97q104 -37 183 -78t132.5 -93t81 -119.5t27.5 -159.5q0 -100 -42 -175t-110.5 -124.5t-158.5 -74t-185 -24.5q-373 0 -522 252z" />
<glyph unicode="T" horiz-adv-x="1112" d="M10 1118v248h1092v-248h-406v-1118h-278v1118h-408z" />
<glyph unicode="U" horiz-adv-x="1406" d="M150 469v897h276v-870q0 -123 71.5 -202t207.5 -79q135 0 205.5 79t70.5 202v870h276v-897q0 -117 -43 -209t-118.5 -156.5t-176 -98.5t-217.5 -34q-115 0 -216 34t-175.5 98.5t-117.5 156.5t-43 209z" />
<glyph unicode="V" horiz-adv-x="1298" d="M0 1366h295l391 -938l340 938h272l-524 -1366h-170z" />
<glyph unicode="W" horiz-adv-x="1593" d="M0 1366h276l168 -811l267 811h170l266 -811l172 811h274l-313 -1366h-174l-311 915l-310 -915h-174z" />
<glyph unicode="X" horiz-adv-x="1185" d="M0 0l444 711l-413 655h311l250 -416l250 416h311l-412 -655l445 -711h-309l-285 471l-283 -471h-309z" />
<glyph unicode="Y" horiz-adv-x="1189" d="M0 1366h307l297 -543l283 543h303l-453 -817v-549h-276v549z" />
<glyph unicode="Z" horiz-adv-x="1175" d="M70 0v225l696 893h-639v248h977v-233l-690 -885h702v-248h-1046z" />
<glyph unicode="[" horiz-adv-x="614" d="M135 -293v1800h479v-225h-223v-1350h223v-225h-479z" />
<glyph unicode="\" horiz-adv-x="1112" d="M0 1460l203 109l909 -1518l-207 -117z" />
<glyph unicode="]" horiz-adv-x="614" d="M0 -68h225v1350h-225v225h479v-1800h-479v225z" />
<glyph unicode="^" horiz-adv-x="1130" d="M125 659l338 707h199l346 -676l-240 -92l-205 436l-190 -454z" />
<glyph unicode="_" horiz-adv-x="1146" d="M0 -307h1147v-185h-1147v185z" />
<glyph unicode="`" horiz-adv-x="905" d="M182 1331l129 170l412 -289l-72 -110z" />
<glyph unicode="a" horiz-adv-x="1052" d="M70 291q0 74 30.5 130t81.5 95t118 63.5t140 36.5q51 10 112.5 15.5t102.5 9.5v33q0 59 -41 96t-96 37q-35 0 -88 -18.5t-102 -69.5l-183 127q39 49 89.5 82t102.5 51t103.5 25.5t94.5 7.5q86 0 157.5 -21.5t123.5 -67.5t81 -117t29 -171v-635h-246l-12 74 q-43 -45 -109.5 -71t-146.5 -26q-66 0 -128.5 21.5t-109.5 61.5t-75.5 98.5t-28.5 132.5zM330 297q0 -49 36.5 -79t108.5 -30q51 0 99.5 20.5t82.5 51.5v201q-41 -2 -87 -7t-87 -14q-86 -16 -119.5 -56t-33.5 -87z" />
<glyph unicode="b" horiz-adv-x="1132" d="M133 61v1305h268v-377q43 10 82 16.5t92 6.5q123 0 214.5 -43t151.5 -114t90 -160t30 -183q0 -143 -43 -244.5t-117 -166t-171 -94.5t-206 -30q-100 0 -198.5 23t-192.5 61zM401 211q29 -6 57.5 -12t55.5 -6q127 0 207 79.5t80 233.5q0 74 -20.5 128t-57.5 90t-86 54.5 t-105 18.5q-59 0 -131 -23v-563z" />
<glyph unicode="c" horiz-adv-x="997" d="M72 489q0 131 39 229.5t103.5 164t148 97.5t174.5 32q90 0 160.5 -25.5t122.5 -66.5t86 -92.5t52 -102.5l-210 -104q-35 98 -87.5 138t-117.5 40q-41 0 -78 -18.5t-66.5 -55.5t-47 -94.5t-17.5 -136.5q0 -141 62.5 -219t162.5 -78q78 0 127 38.5t88 110.5l201 -108 q-63 -133 -171 -197t-251 -64q-94 0 -181 33t-153.5 97.5t-106.5 159.5t-40 222z" />
<glyph unicode="d" horiz-adv-x="1140" d="M72 498q0 96 30.5 188t92 165t153.5 117t217 44q84 0 176 -29v383h267v-1366h-244l-12 76q-37 -39 -96.5 -69t-141.5 -30q-106 0 -189 43t-139.5 115t-85 166t-28.5 197zM332 504q0 -61 14 -117.5t43 -98.5t73 -67.5t105 -25.5q49 0 100.5 25.5t73.5 60.5v487 q-76 29 -143 29q-68 0 -118 -24.5t-82.5 -66.5t-49 -94.5t-16.5 -107.5z" />
<glyph unicode="e" horiz-adv-x="1075" d="M72 494q0 125 37.5 221t103.5 161.5t153 100.5t185 35q207 0 333 -144.5t130 -437.5h-674q10 -125 76.5 -180t148.5 -55q72 0 129.5 25.5t118.5 111.5l199 -121q-84 -129 -194.5 -181.5t-260.5 -52.5q-98 0 -186 31t-154.5 95.5t-105.5 160.5t-39 230zM346 612h395 q-8 98 -66.5 147.5t-123.5 49.5q-35 0 -68.5 -13.5t-62.5 -39t-48.5 -62.5t-25.5 -82z" />
<glyph unicode="f" horiz-adv-x="686" d="M33 782v205h137v35q0 98 26.5 168t72.5 116t108.5 67.5t136.5 21.5q98 0 171 -15.5t132 -44.5l-78 -205q-82 41 -182 41q-51 0 -86 -33.5t-35 -117.5v-33h223v-205h-221v-782h-268v782h-137z" />
<glyph unicode="g" horiz-adv-x="1091" d="M68 -117q0 72 30.5 116t83.5 73q-29 23 -50 59.5t-21 81.5q0 53 30.5 95t81.5 71q-59 47 -95 115.5t-36 150.5q0 92 38 160.5t100.5 115t143.5 69t167 22.5q59 0 106 -10.5t101 -30.5l157 166l150 -123l-144 -152q39 -43 60.5 -100t21.5 -117q0 -92 -37.5 -160.5 t-101 -113.5t-145.5 -67.5t-168 -22.5q-39 0 -77 5t-65 11q-10 -6 -20 -20.5t-10 -26.5q0 -14 10 -24.5t40 -18.5t83 -14.5t141 -8.5q106 -4 188 -19t136.5 -49t82 -88.5t27.5 -133.5q0 -88 -43 -146.5t-112.5 -94.5t-160.5 -50.5t-186 -14.5q-94 0 -185 14.5t-162.5 48.5 t-115.5 90t-44 142zM305 -94q0 -127 277 -127q123 0 192.5 24.5t69.5 71.5q0 27 -10.5 45.5t-44 30.5t-95 19t-166.5 10q-41 2 -84 8q-43 4 -84 10q-18 -12 -36.5 -35.5t-18.5 -56.5zM346 643q0 -80 54.5 -122t140.5 -42t142 42t56 120t-56 125t-142 47t-140.5 -46 t-54.5 -124z" />
<glyph unicode="h" horiz-adv-x="1181" d="M133 0v1366h268v-444q49 37 118 63.5t165 26.5q100 0 170 -31t115 -86t65.5 -134t20.5 -175v-586h-269v567q0 123 -50 177.5t-115 54.5q-66 0 -125.5 -34t-94.5 -63v-702h-268z" />
<glyph unicode="i" horiz-adv-x="532" d="M106 1245q0 53 40 98.5t120 45.5t120 -45.5t40 -98.5q0 -55 -40 -100t-120 -45t-120 45t-40 100zM133 0v987h266v-987h-266z" />
<glyph unicode="j" horiz-adv-x="552" d="M-16 -238q51 35 84.5 65t52 61.5t26 67.5t7.5 83v948h266v-948q0 -80 -17.5 -144.5t-53.5 -117.5t-90 -96t-128 -82zM129 1245q0 53 40 98.5t120 45.5q78 0 117.5 -45.5t39.5 -98.5q0 -55 -39.5 -100t-117.5 -45q-80 0 -120 45t-40 100z" />
<glyph unicode="k" horiz-adv-x="1069" d="M133 0v1366h268v-657l310 278h321l-340 -305l389 -682h-301l-282 510l-97 -90v-420h-268z" />
<glyph unicode="l" horiz-adv-x="534" d="M133 0v1366h268v-1366h-268z" />
<glyph unicode="m" horiz-adv-x="1804" d="M133 0v987h246l10 -74q47 41 118 70t142 29q72 0 145.5 -21.5t135.5 -75.5q72 41 155.5 69t182.5 28q117 0 194.5 -29t125.5 -82t68.5 -131t20.5 -178v-592h-266v580q0 98 -39 158.5t-143 60.5q-31 0 -61.5 -9.5t-58.5 -21.5t-50.5 -25.5t-34.5 -23.5q4 -25 8 -55.5 t4 -67.5v-596h-266v580q0 45 -8 85t-26.5 69.5t-50.5 47t-79 17.5q-59 0 -114.5 -31t-90.5 -66v-702h-268z" />
<glyph unicode="n" horiz-adv-x="1189" d="M133 0v987h244l12 -78q61 49 141 76t160 27q82 0 150.5 -23.5t118 -75t77 -133.5t27.5 -196v-584h-268v563q0 113 -49.5 174.5t-137.5 61.5q-61 0 -114.5 -31t-92.5 -68v-700h-268z" />
<glyph unicode="o" horiz-adv-x="1138" d="M72 498q0 96 30.5 188t93 165t155.5 117t218 44t218.5 -44t156 -117t93 -165t30.5 -188t-30.5 -189.5t-93 -167t-156 -119t-218.5 -45.5q-125 1 -219 46q-92 45 -154.5 118.5t-93 166.5t-30.5 190zM334 498q0 -63 15 -117.5t44 -95.5t73 -64.5t103 -23.5q57 0 101.5 23.5 t74 64.5t45 95t15.5 118q0 61 -15.5 116.5t-45 95.5t-73.5 63.5t-102 23.5q-57 0 -101 -23.5t-73.5 -63.5t-45 -95.5t-15.5 -116.5z" />
<glyph unicode="p" horiz-adv-x="1134" d="M133 -387v1374h244l12 -74q37 35 98.5 67t145.5 32q106 0 187 -43t134.5 -114t81 -165t27.5 -194q0 -96 -31 -189.5t-95.5 -166t-163.5 -118t-234 -45.5q-70 0 -138 29v-393h-268zM399 227q61 -28 121 -28h4q72 0 124 24.5t87 66.5t51.5 94t16.5 108q0 57 -14.5 112 t-42 98t-69.5 70t-99 27q-55 0 -104.5 -30t-74.5 -64v-478z" />
<glyph unicode="q" horiz-adv-x="1134" d="M72 496q0 100 32.5 193t101 165t173 115t250.5 43q80 0 174 -9.5t198 -23.5v-1366h-268v383q-41 -10 -75.5 -14.5t-71.5 -4.5q-127 0 -222.5 42t-161 113t-98 165t-32.5 199zM332 496q0 -63 18.5 -117.5t55 -94.5t92 -63.5t127.5 -23.5q41 0 63.5 8t44.5 18v568 q-29 4 -50 6t-52 2q-78 0 -134.5 -25.5t-93 -67.5t-54 -97.5t-17.5 -112.5z" />
<glyph unicode="r" horiz-adv-x="759" d="M133 0v987h244l12 -86q55 59 111.5 83t117.5 24q35 0 74 -8.5t80 -22.5l-47 -232q-41 16 -77 25.5t-70 9.5q-57 0 -103.5 -26.5t-73.5 -61.5v-692h-268z" />
<glyph unicode="s" horiz-adv-x="993" d="M59 211l199 121q35 -66 97.5 -110t156.5 -44q82 0 128 25.5t46 70.5q0 43 -49 76t-182 58q-78 14 -142.5 37.5t-109.5 60.5t-69.5 88t-24.5 123q0 131 109.5 213t295.5 82q168 0 266.5 -54.5t151.5 -132.5l-189 -129q-37 49 -94 82t-135 33q-86 0 -119 -25.5t-33 -66.5 q0 -47 41 -67.5t152 -43.5q90 -18 160.5 -42.5t120 -62.5t75 -91.5t25.5 -124.5q0 -80 -33 -138.5t-90 -96.5t-135 -56.5t-166 -18.5q-176 0 -285.5 67t-167.5 167z" />
<glyph unicode="t" horiz-adv-x="753" d="M31 782v205h145v256h266v-256h240v-205h-240v-503q0 -47 21.5 -64.5t42.5 -17.5q41 0 80 20.5t67 42.5l97 -182q-68 -45 -143 -73t-158 -28q-51 0 -100.5 14.5t-87.5 45.5t-61.5 81t-23.5 122v542h-145z" />
<glyph unicode="u" horiz-adv-x="1185" d="M127 399v588h268v-561q0 -102 39 -165.5t133 -63.5q78 0 131.5 29.5t85.5 56.5v704h269v-987h-246l-10 78q-72 -57 -148 -77.5t-149 -20.5q-180 0 -276.5 104t-96.5 315z" />
<glyph unicode="v" horiz-adv-x="1091" d="M0 987h285l272 -655l262 655h273l-424 -987h-232z" />
<glyph unicode="w" horiz-adv-x="1468" d="M0 987h279l178 -594l194 594h164l197 -594l178 594h278l-352 -987h-194l-189 571l-186 -571h-195z" />
<glyph unicode="x" horiz-adv-x="1046" d="M0 987h301l227 -305l228 305h274l-360 -481l377 -506h-302l-229 311l-231 -311h-279l371 487z" />
<glyph unicode="y" horiz-adv-x="1058" d="M0 987h285l258 -674l245 674h271l-512 -1220q-23 -51 -53.5 -86t-67.5 -55.5t-79 -29t-83 -8.5q-53 0 -117.5 13.5t-132.5 42.5l84 190q39 -18 77 -26.5t65 -8.5q25 0 49 14.5t45 57.5l76 170z" />
<glyph unicode="z" horiz-adv-x="1040" d="M74 0v182l565 600h-543v205h850v-192l-557 -592h574v-203h-889z" />
<glyph unicode="{" horiz-adv-x="600" d="M35 608v152q92 12 133 51t41 115v264q0 156 90 229.5t279 77.5l22 -178q-51 -2 -79.5 -15.5t-44 -37t-19.5 -54t-4 -65.5v-221q0 -184 -146 -242q76 -35 111 -91t35 -151v-225q0 -35 4 -64.5t19.5 -52t45 -36t78.5 -15.5l-22 -176q-188 2 -278.5 77t-90.5 230v262 q0 76 -41 115t-133 51z" />
<glyph unicode="|" horiz-adv-x="563" d="M152 -152v1663h256v-1663h-256z" />
<glyph unicode="}" horiz-adv-x="600" d="M0 49q49 2 79 15.5t45 35t19 52t4 65.5v225q0 94 35 150.5t111 91.5q-145 57 -146 242v221q0 35 -4 65.5t-19 54t-44 37t-80 15.5l23 178q188 -4 279 -77.5t91 -229.5v-264q0 -76 41 -115t133 -51v-152q-92 -12 -133 -51t-41 -115v-262q0 -305 -370 -307z" />
<glyph unicode="~" horiz-adv-x="970" d="M-4 1036q23 145 100.5 220t202.5 75q68 0 117 -17.5t86 -38t67.5 -37.5t63.5 -17q35 0 65.5 20.5t40.5 93.5h236q-6 -82 -31.5 -140t-65.5 -95t-89.5 -53.5t-104.5 -16.5q-68 0 -116 17.5t-86 39t-71.5 39t-74.5 17.5t-67.5 -23.5t-37.5 -83.5h-235z" />
<glyph unicode="&#xa1;" horiz-adv-x="493" d="M80 846q0 66 47 116t121 50q37 0 66.5 -14.5t52 -37t35 -52t12.5 -62.5t-12.5 -62.5t-35 -53t-52 -37t-66.5 -13.5q-74 0 -121 50t-47 116zM115 -379v936h270v-936h-270z" />
<glyph unicode="&#xa2;" d="M170 678q0 70 20.5 137.5t63.5 122.5t107.5 93t152.5 50v285h172v-283q72 -4 140.5 -34.5t111.5 -65.5l-109 -182q-51 35 -102 59.5t-113 24.5q-53 0 -90 -18.5t-59.5 -48.5t-32.5 -66.5t-10 -75.5q0 -35 11 -70t36 -63.5t62.5 -47t91.5 -20.5q23 0 43 2t44.5 9.5 t53.5 19.5t67 31l87 -183q-68 -39 -124.5 -56t-107.5 -24v-297h-172v302q-86 14 -150.5 53t-107.5 94t-64.5 119.5t-21.5 132.5z" />
<glyph unicode="&#xa3;" d="M70 504v223h143v213q0 106 34 188t91 138.5t134 85t163 28.5q137 0 245.5 -65.5t163.5 -204.5l-239 -113q-41 88 -84 115t-86 27q-27 0 -54.5 -10.5t-51 -35t-39 -65.5t-15.5 -100v-201h408v-223h-408v-256h559v-248h-821v504h-143z" />
<glyph unicode="&#xa4;" horiz-adv-x="1511" d="M0 199l328 311q-63 115 -64 244q0 127 58 233l-322 303l184 166l303 -289q59 35 127 51.5t138 16.5q72 0 140.5 -16.5t129.5 -53.5l305 291l184 -166l-323 -303q29 -53 41 -110.5t12 -116.5q0 -66 -15.5 -128.5t-47.5 -117.5l333 -315l-176 -170l-329 311 q-59 -33 -125 -47t-133 -14q-63 0 -126 14t-120 45l-326 -309zM508 756q0 -53 17 -99.5t50 -81.5t77 -54t100 -19q55 0 100 19.5t78 54t50 80.5t17 100q0 53 -17 100t-50 82t-78 54.5t-100 19.5q-111 0 -177.5 -74t-66.5 -182z" />
<glyph unicode="&#xa5;" d="M-39 1356h307l297 -537l281 537h299l-365 -649h232v-222h-316v-485h-276v485h-320v222h232z" />
<glyph unicode="&#xa6;" horiz-adv-x="563" d="M152 -152v631h256v-631h-256zM152 879v632h256v-632h-256z" />
<glyph unicode="&#xa7;" horiz-adv-x="993" d="M94 -129l154 160q98 -113 213 -113q63 0 93 28.5t30 63.5q0 33 -20.5 60.5t-53.5 54.5t-74 52.5t-82 53.5q-43 31 -85 65t-74.5 76t-53 93t-20.5 117q0 94 62.5 163.5t150.5 104.5q-66 57 -102.5 119.5t-36.5 144.5q0 131 95 205t249 74q104 0 187 -35t159 -119 l-164 -147q-37 37 -83 62.5t-97 25.5q-39 0 -65.5 -20.5t-26.5 -51.5q0 -37 19 -65.5t52 -55t73 -54.5t81 -61q39 -33 76.5 -69.5t67.5 -79.5t47.5 -95.5t17.5 -113.5q0 -90 -52.5 -152.5t-123.5 -97.5q59 -47 99 -107.5t40 -152.5q0 -74 -33 -129t-85 -93t-119.5 -57.5 t-135.5 -19.5q-119 0 -212 43t-167 123zM375 582q0 -50 43 -95q45 -45 141 -106q43 20 60.5 58t17.5 73q0 43 -38 94t-126 117q-53 -23 -75.5 -65t-22.5 -76z" />
<glyph unicode="&#xa8;" horiz-adv-x="905" d="M127 1292q0 59 37 102.5t96 43.5q57 0 95 -43t38 -103q0 -57 -38 -101t-95 -44q-59 0 -96 44t-37 101zM512 1292q0 59 38 102.5t95 43.5q59 0 96 -43t37 -103q0 -57 -37 -101t-96 -44q-57 0 -95 44t-38 101z" />
<glyph unicode="&#xa9;" horiz-adv-x="1587" d="M90 608q0 143 44 279.5t133 244t220 173t308 65.5q174 0 306 -65.5t220 -173t132 -243.5t44 -280q0 -143 -44 -281.5t-132 -246t-220 -173t-306 -65.5q-177 0 -308 66t-220 173t-133 245.5t-44 281.5zM264 608q0 -117 33.5 -225.5t101.5 -192.5t167.5 -134t228.5 -50 t228 50t165.5 134t100.5 193t34 225q0 115 -34 223.5t-100.5 192.5t-165.5 134t-228 50q-131 0 -230.5 -50t-166 -134t-100.5 -192.5t-34 -223.5zM395 604q0 119 34 208t90 147.5t130 87t154 28.5q129 0 212 -54t134 -163l-164 -88q-35 63 -75 96t-103 33q-39 0 -76 -17.5 t-64.5 -54t-45 -92t-17.5 -131.5q0 -135 62.5 -212t150.5 -77q47 0 92 25t88 96l160 -94q-68 -111 -153.5 -158t-192.5 -47q-92 0 -169 32t-132 92.5t-85 146.5t-30 196z" />
<glyph unicode="&#xaa;" horiz-adv-x="759" d="M61 834q0 80 46.5 129t112 75.5t140 36.5t134.5 15v20q0 41 -29 67.5t-70 26.5q-27 0 -65.5 -13t-73.5 -52l-139 96q31 39 67.5 62.5t75.5 38t77 19.5t71 5q127 0 208.5 -65.5t81.5 -215.5v-461h-184l-8 54q-84 -68 -189 -68q-49 0 -95 15.5t-82 45t-57.5 71.5t-21.5 98z M260 836q0 -29 26.5 -51.5t78.5 -22.5q41 0 73.5 19.5t57.5 41.5v123q-29 -4 -61 -8t-60 -10q-61 -12 -88 -39t-27 -53z" />
<glyph unicode="&#xab;" horiz-adv-x="1175" d="M25 512l424 434l176 -139l-293 -283l321 -276l-164 -156zM504 512l424 434l176 -139l-293 -283l322 -276l-164 -156z" />
<glyph unicode="&#xac;" d="M43 831v224h1010v-756h-234v532h-776z" />
<glyph unicode="&#xad;" horiz-adv-x="675" d="M78 412v243h520v-243h-520z" />
<glyph unicode="&#xae;" horiz-adv-x="1589" d="M92 608q0 143 44 279.5t133 244t220.5 173t307.5 65.5q174 0 305 -65.5t219 -173t132 -243.5t44 -280q0 -143 -44 -281.5t-132 -246t-220 -173t-306 -65.5q-175 0 -308 66q-131 66 -219 173t-132 245.5t-44 281.5zM264 608q0 -117 33.5 -225.5t101.5 -192.5t167.5 -134 t230.5 -50q129 0 227 50t165.5 134t101.5 193t34 225q0 115 -34 223.5t-100.5 192.5t-165.5 134t-228 50q-131 0 -230.5 -50t-167 -134t-101.5 -192.5t-34 -223.5zM502 209v831h311q166 0 246 -66.5t80 -195.5q0 -102 -47.5 -161.5t-118.5 -84.5l174 -323h-203l-158 301h-94 v-301h-190zM692 684h107q78 0 110.5 20.5t32.5 79.5q0 49 -29.5 65.5t-105.5 16.5h-115v-182z" />
<glyph unicode="&#xaf;" horiz-adv-x="905" d="M82 1184v182h743v-182h-743z" />
<glyph unicode="&#xb0;" horiz-adv-x="811" d="M82 1061q0 74 28.5 131t74.5 95t104.5 58.5t116.5 20.5q57 0 115.5 -20.5t104.5 -59.5t74.5 -96t28.5 -131t-28.5 -131.5t-74.5 -95t-103.5 -58t-114.5 -20.5q-59 0 -117 20.5t-105 59.5t-75.5 96t-28.5 131zM295 1059q0 -63 35 -95t76 -32t75.5 31.5t34.5 95.5 q0 66 -35 97.5t-75 31.5q-41 0 -76 -31.5t-35 -97.5z" />
<glyph unicode="&#xb1;" d="M49 0v225h1010v-225h-1010zM49 729v225h393v412h224v-412h393v-225h-393v-405h-224v405h-393z" />
<glyph unicode="&#xb2;" horiz-adv-x="645" d="M41 1180q109 199 315 198q98 0 167 -51t69 -156q0 -59 -24.5 -109t-65.5 -93q-31 -35 -58.5 -59.5t-60.5 -49.5h225v-170h-528v117q72 66 129 117t113 112q29 31 44 57.5t15 55.5t-15.5 46t-43.5 17q-25 0 -55.5 -21.5t-65.5 -92.5z" />
<glyph unicode="&#xb3;" horiz-adv-x="645" d="M33 844l160 84q35 -53 69.5 -70.5t65.5 -17.5q41 0 60.5 18.5t19.5 46.5q0 8 -3.5 19.5t-15.5 21.5t-35.5 17.5t-66.5 7.5v133q41 2 63.5 10t32.5 17.5t12 19.5t2 16q0 23 -16 37.5t-51 14.5q-29 0 -59.5 -16.5t-65.5 -72.5l-158 84q59 92 138 128t169 36q45 0 89 -11 t79 -34.5t55.5 -58.5t20.5 -82q0 -57 -22.5 -91t-55.5 -54q31 -16 60.5 -53.5t29.5 -94.5q0 -59 -24.5 -100t-63.5 -67.5t-88 -39t-100 -12.5q-82 0 -160 34t-141 130z" />
<glyph unicode="&#xb4;" horiz-adv-x="905" d="M182 1212l412 289l129 -170l-467 -229z" />
<glyph unicode="&#xb5;" horiz-adv-x="1247" d="M143 -387v1374h269v-600q0 -84 44 -142.5t140 -58.5q68 0 121 30t76 85q6 14 9 35.5t5 43t2 40v31.5v528h266v-707q0 -53 14.5 -73.5t43.5 -20.5q14 0 29.5 3t35.5 7l29 -180q-27 -10 -75 -20.5t-87 -10.5q-154 0 -191 134q-49 -68 -119.5 -101t-154.5 -33 q-63 0 -119.5 21.5t-87.5 54.5v-440h-250z" />
<glyph unicode="&#xb6;" horiz-adv-x="1085" d="M33 938q0 86 31.5 163t89 136t137.5 94t174 35h164v-1663h-219v813q-84 8 -154 46t-119 94.5t-76.5 129t-27.5 152.5zM727 -297v1663h223v-1663h-223z" />
<glyph unicode="&#xb7;" horiz-adv-x="667" d="M184 754q0 57 37 103t115 46q74 0 110.5 -46t36.5 -103q0 -55 -35.5 -101.5t-111.5 -46.5q-78 0 -115 46t-37 102z" />
<glyph unicode="&#xb8;" horiz-adv-x="905" d="M276 -371l127 281h238l-176 -281h-189z" />
<glyph unicode="&#xb9;" horiz-adv-x="645" d="M111 1210l270 152h151v-672h-200v447l-139 -74z" />
<glyph unicode="&#xba;" horiz-adv-x="845" d="M61 983q0 70 22.5 137.5t68 120.5t113 86t157.5 33t158.5 -33t113.5 -86t67.5 -120.5t22.5 -137.5t-22.5 -137.5t-67.5 -121.5t-112.5 -87t-159.5 -33t-160 33t-113 87t-66.5 121.5t-21.5 137.5zM276 983q0 -82 35 -141q37 -57 111 -58q76 0 111.5 58.5t35.5 140.5 q0 84 -35.5 143.5t-109.5 59.5q-76 0 -112 -59.5t-36 -143.5z" />
<glyph unicode="&#xbb;" horiz-adv-x="1175" d="M43 248l322 276l-293 283l176 139l424 -434l-465 -420zM522 248l322 276l-293 283l176 139l424 -434l-467 -420z" />
<glyph unicode="&#xbc;" horiz-adv-x="1585" d="M-24 1210l270 152h151v-672h-200v447l-139 -74zM51 119l1341 1249l140 -141l-1348 -1252zM945 148v149l329 377h183v-383h84v-143h-84v-146h-199v146h-313zM1106 291h152v176z" />
<glyph unicode="&#xbd;" horiz-adv-x="1585" d="M-24 1210l270 152h151v-672h-200v447l-139 -74zM37 119l1341 1249l140 -141l-1348 -1252zM1008 492q109 199 315 198q98 0 167 -51t69 -156q0 -59 -24.5 -109t-65.5 -93q-31 -35 -58.5 -59.5t-60.5 -49.5h225v-170h-528v117q72 66 129 117t113 112q29 31 44 57.5t15 55.5 t-15.5 46t-43.5 17q-25 0 -55.5 -21.5t-65.5 -92.5z" />
<glyph unicode="&#xbe;" horiz-adv-x="1585" d="M-14 844l160 84q35 -53 69.5 -70.5t65.5 -17.5q41 0 60.5 18.5t19.5 46.5q0 8 -3.5 19.5t-15.5 21.5t-35.5 17.5t-66.5 7.5v133q41 2 63.5 10t32.5 17.5t12 19.5t2 16q0 23 -16 37.5t-51 14.5q-29 0 -59.5 -16.5t-65.5 -72.5l-158 84q59 92 138 128t169 36q45 0 89 -11 t79 -34.5t55.5 -58.5t20.5 -82q0 -57 -22.5 -91t-55.5 -54q31 -16 60.5 -53.5t29.5 -94.5q0 -59 -24.5 -100t-63.5 -67.5t-88 -39t-100 -12.5q-82 0 -160 34t-141 130zM55 119l1341 1249l140 -141l-1348 -1252zM934 148v149l329 377h183v-383h84v-143h-84v-146h-199v146 h-313zM1095 291h152v176z" />
<glyph unicode="&#xbf;" horiz-adv-x="864" d="M12 -27q0 49 15.5 92.5t40 82t55.5 72.5t61 67q55 55 97.5 108.5t42.5 112.5v49h258v-86q0 -41 -13.5 -80t-33 -72.5t-43 -62.5t-43.5 -49q-31 -31 -61 -57.5t-53.5 -55t-37.5 -59.5t-14 -70q0 -72 43 -110.5t120 -38.5q59 0 120 33.5t126 132.5l197 -132 q-74 -113 -184.5 -184.5t-272.5 -71.5q-205 0 -312.5 102.5t-107.5 276.5zM287 846q0 66 46 116t120 50t121 -50.5t47 -115.5q0 -66 -47 -116t-121 -50t-120 50t-46 116z" />
<glyph unicode="&#xc0;" horiz-adv-x="1327" d="M0 0l561 1366h195l569 -1366h-297l-110 274h-527l-112 -274h-279zM291 1671l129 170l412 -289l-72 -110zM475 506h352l-176 448z" />
<glyph unicode="&#xc1;" horiz-adv-x="1327" d="M0 0l561 1366h195l569 -1366h-297l-110 274h-527l-112 -274h-279zM434 1552l412 289l129 -170l-467 -229zM475 506h352l-176 448z" />
<glyph unicode="&#xc2;" horiz-adv-x="1327" d="M0 0l561 1366h195l569 -1366h-297l-110 274h-527l-112 -274h-279zM305 1546l248 267h197l248 -271l-142 -86l-206 197l-207 -199zM475 506h352l-176 448z" />
<glyph unicode="&#xc3;" horiz-adv-x="1327" d="M0 0l561 1366h195l569 -1366h-297l-110 274h-527l-112 -274h-279zM231 1520q35 104 101.5 169.5t158.5 65.5q41 0 81 -18.5t75 -40.5q35 -23 65.5 -40.5t55.5 -17.5q20 0 56 24t71 105l139 -71q-37 -111 -102.5 -174.5t-157.5 -63.5q-43 0 -83 19.5t-75 42.5t-64.5 39 t-54.5 16q-23 0 -56.5 -23.5t-67.5 -105.5zM475 506h352l-176 448z" />
<glyph unicode="&#xc4;" horiz-adv-x="1327" d="M0 0l561 1366h195l569 -1366h-297l-110 274h-527l-112 -274h-279zM326 1632q0 59 37 102.5t96 43.5q57 0 95 -43t38 -103q0 -57 -38 -101t-95 -44q-59 0 -96 44t-37 101zM475 506h352l-176 448zM711 1632q0 59 38 102.5t95 43.5q59 0 96 -43t37 -103q0 -57 -37 -101 t-96 -44q-57 0 -95 44t-38 101z" />
<glyph unicode="&#xc5;" horiz-adv-x="1327" d="M0 0l561 1364q-39 20 -63 51q-27 31 -40.5 71t-13.5 81t13.5 81t40 71.5t66.5 51t93 19.5t94.5 -19.5t68 -50t39.5 -70.5t13 -81t-13 -81t-39.5 -72t-65.5 -50h2l569 -1366h-297l-110 274h-527l-112 -274h-279zM475 506h352l-176 448zM578 1569q0 -41 20 -68 q23 -27 59 -26q39 0 60.5 26.5t21.5 67.5t-21.5 67.5t-60.5 26.5q-37 0 -58 -26.5t-21 -67.5z" />
<glyph unicode="&#xc6;" horiz-adv-x="1890" d="M0 0l831 1366h955v-248h-561v-309h444v-246h-444v-315h608v-248h-885v360h-418l-219 -360h-311zM657 594h291v489z" />
<glyph unicode="&#xc7;" horiz-adv-x="1245" d="M92 678q0 184 50.5 318t133 223.5t192.5 132.5t226 43q94 0 170 -21.5t136.5 -62.5t106.5 -100.5t81 -135.5l-223 -125q-41 88 -101.5 145.5t-163.5 57.5q-63 0 -122.5 -28.5t-104.5 -88t-72.5 -148.5t-27.5 -210q0 -106 26.5 -192.5t72.5 -145.5t107.5 -92t133.5 -33 q39 0 74.5 8t68.5 29.5t63.5 57.5t61.5 93l215 -131q-92 -164 -209 -232.5t-285 -68.5q-135 0 -247.5 47.5t-193.5 138.5t-125 222t-44 299zM481 -371l127 281h238l-176 -281h-189z" />
<glyph unicode="&#xc8;" horiz-adv-x="1200" d="M158 0v1366h938v-248h-662v-311h547v-248h-547v-311h709v-248h-985zM282 1671l129 170l412 -289l-72 -110z" />
<glyph unicode="&#xc9;" horiz-adv-x="1200" d="M158 0v1366h938v-248h-662v-311h547v-248h-547v-311h709v-248h-985zM413 1552l412 289l129 -170l-467 -229z" />
<glyph unicode="&#xca;" horiz-adv-x="1200" d="M158 0v1366h938v-248h-662v-311h547v-248h-547v-311h709v-248h-985zM276 1546l248 267h197l248 -271l-142 -86l-206 197l-207 -199z" />
<glyph unicode="&#xcb;" horiz-adv-x="1200" d="M158 0v1366h938v-248h-662v-311h547v-248h-547v-311h709v-248h-985zM303 1632q0 59 37 102.5t96 43.5q57 0 95 -43t38 -103q0 -57 -38 -101t-95 -44q-59 0 -96 44t-37 101zM688 1632q0 59 38 102.5t95 43.5q59 0 96 -43t37 -103q0 -57 -37 -101t-96 -44q-57 0 -95 44 t-38 101z" />
<glyph unicode="&#xcc;" horiz-adv-x="591" d="M-51 1671l129 170l412 -289l-72 -110zM158 0v1366h276v-1366h-276z" />
<glyph unicode="&#xcd;" horiz-adv-x="591" d="M100 1552l412 289l129 -170l-467 -229zM158 0v1366h276v-1366h-276z" />
<glyph unicode="&#xce;" horiz-adv-x="591" d="M-50 1546l248 267h197l248 -271l-142 -86l-206 197l-207 -199zM158 0v1366h276v-1366h-276z" />
<glyph unicode="&#xcf;" horiz-adv-x="591" d="M-27 1632q0 59 37 102.5t96 43.5q57 0 95 -43t38 -103q0 -57 -38 -101t-95 -44q-59 0 -96 44t-37 101zM158 0v1366h276v-1366h-276zM358 1632q0 59 38 102.5t95 43.5q59 0 96 -43t37 -103q0 -57 -37 -101t-96 -44q-57 0 -95 44t-38 101z" />
<glyph unicode="&#xd0;" horiz-adv-x="1366" d="M0 596v215h170v555h405q82 0 177.5 -13.5t175.5 -47.5q88 -41 153.5 -105.5t109.5 -145.5t65.5 -174.5t21.5 -189.5t-21.5 -189t-65.5 -176t-109.5 -148.5t-153.5 -106.5q-150 -70 -342 -70h-416v596h-170zM446 246h113q145 0 248 51q98 51 144 156.5t46 224.5 q0 117 -43 220t-131 161q-47 31 -117.5 46t-142.5 15h-117v-309h312v-215h-312v-350z" />
<glyph unicode="&#xd1;" horiz-adv-x="1423" d="M158 0v1366h282l553 -852v852h273v-1366h-242l-594 903v-903h-272zM305 1520q35 104 101.5 169.5t158.5 65.5q41 0 81 -18.5t75 -40.5q35 -23 65.5 -40.5t55.5 -17.5q20 0 56 24t71 105l139 -71q-37 -111 -102.5 -174.5t-157.5 -63.5q-43 0 -83 19.5t-75 42.5t-64.5 39 t-54.5 16q-23 0 -56.5 -23.5t-67.5 -105.5z" />
<glyph unicode="&#xd2;" horiz-adv-x="1447" d="M92 684q0 131 39 259t117 228.5t196.5 162t276.5 61.5q160 0 278.5 -61.5t198.5 -162t119 -228.5t39 -259t-39 -259t-119 -228.5t-198.5 -163t-278.5 -62.5q-158 1 -277 62q-119 63 -196.5 163.5t-116.5 228.5t-39 259zM348 1671l129 170l412 -289l-72 -110zM371 684 q0 -90 22.5 -175t67.5 -151t109.5 -104.5t150.5 -38.5t152.5 39t111.5 104.5t67.5 150.5t22.5 175t-22.5 175t-67.5 150.5t-111.5 104.5t-152.5 39t-150.5 -39t-109.5 -104.5t-67.5 -150.5t-22.5 -175z" />
<glyph unicode="&#xd3;" horiz-adv-x="1447" d="M92 684q0 131 39 259t117 228.5t196.5 162t276.5 61.5q160 0 278.5 -61.5t198.5 -162t119 -228.5t39 -259t-39 -259t-119 -228.5t-198.5 -163t-278.5 -62.5q-158 1 -277 62q-119 63 -196.5 163.5t-116.5 228.5t-39 259zM371 684q0 -90 22.5 -175t67.5 -151t109.5 -104.5 t150.5 -38.5t152.5 39t111.5 104.5t67.5 150.5t22.5 175t-22.5 175t-67.5 150.5t-111.5 104.5t-152.5 39t-150.5 -39t-109.5 -104.5t-67.5 -150.5t-22.5 -175zM497 1552l412 289l129 -170l-467 -229z" />
<glyph unicode="&#xd4;" horiz-adv-x="1447" d="M92 684q0 131 39 259t117 228.5t196.5 162t276.5 61.5q160 0 278.5 -61.5t198.5 -162t119 -228.5t39 -259t-39 -259t-119 -228.5t-198.5 -163t-278.5 -62.5q-158 1 -277 62q-119 63 -196.5 163.5t-116.5 228.5t-39 259zM371 684q0 -90 22.5 -175t67.5 -151t109.5 -104.5 t150.5 -38.5t152.5 39t111.5 104.5t67.5 150.5t22.5 175t-22.5 175t-67.5 150.5t-111.5 104.5t-152.5 39t-150.5 -39t-109.5 -104.5t-67.5 -150.5t-22.5 -175zM380 1546l248 267h197l248 -271l-142 -86l-206 197l-207 -199z" />
<glyph unicode="&#xd5;" horiz-adv-x="1447" d="M92 684q0 131 39 259t117 228.5t196.5 162t276.5 61.5q160 0 278.5 -61.5t198.5 -162t119 -228.5t39 -259t-39 -259t-119 -228.5t-198.5 -163t-278.5 -62.5q-158 1 -277 62q-119 63 -196.5 163.5t-116.5 228.5t-39 259zM307 1520q35 104 101.5 169.5t158.5 65.5 q41 0 81 -18.5t75 -40.5q35 -23 65.5 -40.5t55.5 -17.5q20 0 56 24t71 105l139 -71q-37 -111 -102.5 -174.5t-157.5 -63.5q-43 0 -83 19.5t-75 42.5t-64.5 39t-54.5 16q-23 0 -56.5 -23.5t-67.5 -105.5zM371 684q0 -90 22.5 -175t67.5 -151t109.5 -104.5t150.5 -38.5 t152.5 39t111.5 104.5t67.5 150.5t22.5 175t-22.5 175t-67.5 150.5t-111.5 104.5t-152.5 39t-150.5 -39t-109.5 -104.5t-67.5 -150.5t-22.5 -175z" />
<glyph unicode="&#xd6;" horiz-adv-x="1447" d="M92 684q0 131 39 259t117 228.5t196.5 162t276.5 61.5q160 0 278.5 -61.5t198.5 -162t119 -228.5t39 -259t-39 -259t-119 -228.5t-198.5 -163t-278.5 -62.5q-158 1 -277 62q-119 63 -196.5 163.5t-116.5 228.5t-39 259zM371 684q0 -90 22.5 -175t67.5 -151t109.5 -104.5 t150.5 -38.5t152.5 39t111.5 104.5t67.5 150.5t22.5 175t-22.5 175t-67.5 150.5t-111.5 104.5t-152.5 39t-150.5 -39t-109.5 -104.5t-67.5 -150.5t-22.5 -175zM383 1632q0 59 37 102.5t96 43.5q57 0 95 -43t38 -103q0 -57 -38 -101t-95 -44q-59 0 -96 44t-37 101zM768 1632 q0 59 38 102.5t95 43.5q59 0 96 -43t37 -103q0 -57 -37 -101t-96 -44q-57 0 -95 44t-38 101z" />
<glyph unicode="&#xd7;" horiz-adv-x="1110" d="M135 414l260 262l-260 262l158 158l262 -260l262 260l158 -158l-260 -262l260 -262l-158 -158l-262 260l-262 -260z" />
<glyph unicode="&#xd8;" horiz-adv-x="1447" d="M66 90l143 164q-59 94 -88 204.5t-29 225.5q0 131 39 258t117 227.5t196.5 162t276.5 61.5q115 0 207 -32t166 -87l129 149l176 -147l-156 -178q57 -92 85 -201t28 -213q0 -131 -39 -259t-119 -228.5t-198.5 -162t-278.5 -61.5q-207 0 -356 113l-125 -145zM371 684 q0 -113 32 -205l521 600q-41 35 -91.5 54.5t-111.5 19.5q-86 0 -150.5 -39t-109.5 -104.5t-67.5 -150.5t-22.5 -175zM526 279q35 -25 89.5 -44.5t105.5 -19.5q86 0 152.5 39t111.5 104.5t67.5 150.5t22.5 175q0 43 -8 99.5t-18 97.5z" />
<glyph unicode="&#xd9;" horiz-adv-x="1406" d="M150 469v897h276v-870q0 -123 71.5 -202t207.5 -79q135 0 205.5 79t70.5 202v870h276v-897q0 -117 -43 -209t-118.5 -156.5t-176 -98.5t-217.5 -34q-115 0 -216 34t-175.5 98.5t-117.5 156.5t-43 209zM286 1671l129 170l412 -289l-72 -110z" />
<glyph unicode="&#xda;" horiz-adv-x="1406" d="M150 469v897h276v-870q0 -123 71.5 -202t207.5 -79q135 0 205.5 79t70.5 202v870h276v-897q0 -117 -43 -209t-118.5 -156.5t-176 -98.5t-217.5 -34q-115 0 -216 34t-175.5 98.5t-117.5 156.5t-43 209zM518 1552l412 289l129 -170l-467 -229z" />
<glyph unicode="&#xdb;" horiz-adv-x="1406" d="M150 469v897h276v-870q0 -123 71.5 -202t207.5 -79q135 0 205.5 79t70.5 202v870h276v-897q0 -117 -43 -209t-118.5 -156.5t-176 -98.5t-217.5 -34q-115 0 -216 34t-175.5 98.5t-117.5 156.5t-43 209zM362 1546l248 267h197l248 -271l-142 -86l-206 197l-207 -199z" />
<glyph unicode="&#xdc;" horiz-adv-x="1406" d="M150 469v897h276v-870q0 -123 71.5 -202t207.5 -79q135 0 205.5 79t70.5 202v870h276v-897q0 -117 -43 -209t-118.5 -156.5t-176 -98.5t-217.5 -34q-115 0 -216 34t-175.5 98.5t-117.5 156.5t-43 209zM369 1632q0 59 37 102.5t96 43.5q57 0 95 -43t38 -103 q0 -57 -38 -101t-95 -44q-59 0 -96 44t-37 101zM754 1632q0 59 38 102.5t95 43.5q59 0 96 -43t37 -103q0 -57 -37 -101t-96 -44q-57 0 -95 44t-38 101z" />
<glyph unicode="&#xdd;" horiz-adv-x="1189" d="M0 1366h307l297 -543l283 543h303l-453 -817v-549h-276v549zM407 1552l412 289l129 -170l-467 -229z" />
<glyph unicode="&#xde;" horiz-adv-x="1187" d="M158 0v1366h276v-211h156q102 0 191 -13.5t169 -51.5q104 -49 153.5 -145.5t49.5 -207.5q0 -63 -15.5 -124.5t-46 -116t-75.5 -97.5t-105 -67q-72 -29 -144.5 -40t-150.5 -11h-182v-281h-276zM434 516h158q59 0 106 6t82 23q59 27 87 74t28 100q0 57 -30.5 107.5 t-90.5 70.5q-35 12 -73.5 18.5t-100.5 6.5h-166v-406z" />
<glyph unicode="&#xdf;" horiz-adv-x="1241" d="M33 782v205h143q2 102 42 179t106.5 127t150.5 75t172 25q86 0 168 -25t145.5 -75t101.5 -124.5t38 -175.5v-176h-176q-37 0 -66 -17.5t-29 -51.5q0 -23 17.5 -43.5t46.5 -40t66.5 -40t78.5 -44.5q33 -18 61.5 -44t51.5 -60t36 -78t13 -101q0 -74 -27.5 -133.5 t-73.5 -100t-107.5 -63.5t-127.5 -23q-106 0 -199.5 47.5t-146.5 165.5l221 107q23 -55 57.5 -78.5t65.5 -23.5q35 0 57.5 22.5t22.5 63.5q0 37 -21.5 64.5t-55.5 51t-74.5 45t-81.5 45.5q-55 35 -98.5 91.5t-43.5 158.5q0 53 17.5 103.5t52.5 90.5t86 64.5t121 26.5 q-6 43 -26.5 72.5t-48.5 47t-59.5 26t-60.5 8.5q-33 0 -68.5 -11.5t-66.5 -39t-51.5 -72.5t-20.5 -113v-940h-268v782h-141z" />
<glyph unicode="&#xe0;" horiz-adv-x="1052" d="M70 291q0 74 30.5 130t81.5 95t118 63.5t140 36.5q51 10 112.5 15.5t102.5 9.5v33q0 59 -41 96t-96 37q-35 0 -88 -18.5t-102 -69.5l-183 127q39 49 89.5 82t102.5 51t103.5 25.5t94.5 7.5q86 0 157.5 -21.5t123.5 -67.5t81 -117t29 -171v-635h-246l-12 74 q-43 -45 -109.5 -71t-146.5 -26q-66 0 -128.5 21.5t-109.5 61.5t-75.5 98.5t-28.5 132.5zM229 1331l129 170l412 -289l-72 -110zM330 297q0 -49 36.5 -79t108.5 -30q51 0 99.5 20.5t82.5 51.5v201q-41 -2 -87 -7t-87 -14q-86 -16 -119.5 -56t-33.5 -87z" />
<glyph unicode="&#xe1;" horiz-adv-x="1052" d="M70 291q0 74 30.5 130t81.5 95t118 63.5t140 36.5q51 10 112.5 15.5t102.5 9.5v33q0 59 -41 96t-96 37q-35 0 -88 -18.5t-102 -69.5l-183 127q39 49 89.5 82t102.5 51t103.5 25.5t94.5 7.5q86 0 157.5 -21.5t123.5 -67.5t81 -117t29 -171v-635h-246l-12 74 q-43 -45 -109.5 -71t-146.5 -26q-66 0 -128.5 21.5t-109.5 61.5t-75.5 98.5t-28.5 132.5zM284 1212l412 289l129 -170l-467 -229zM330 297q0 -49 36.5 -79t108.5 -30q51 0 99.5 20.5t82.5 51.5v201q-41 -2 -87 -7t-87 -14q-86 -16 -119.5 -56t-33.5 -87z" />
<glyph unicode="&#xe2;" horiz-adv-x="1052" d="M70 291q0 74 30.5 130t81.5 95t118 63.5t140 36.5q51 10 112.5 15.5t102.5 9.5v33q0 59 -41 96t-96 37q-35 0 -88 -18.5t-102 -69.5l-183 127q39 49 89.5 82t102.5 51t103.5 25.5t94.5 7.5q86 0 157.5 -21.5t123.5 -67.5t81 -117t29 -171v-635h-246l-12 74 q-43 -45 -109.5 -71t-146.5 -26q-66 0 -128.5 21.5t-109.5 61.5t-75.5 98.5t-28.5 132.5zM161 1206l248 267h197l248 -271l-142 -86l-206 197l-207 -199zM330 297q0 -49 36.5 -79t108.5 -30q51 0 99.5 20.5t82.5 51.5v201q-41 -2 -87 -7t-87 -14q-86 -16 -119.5 -56 t-33.5 -87z" />
<glyph unicode="&#xe3;" horiz-adv-x="1052" d="M70 291q0 74 30.5 130t81.5 95t118 63.5t140 36.5q51 10 112.5 15.5t102.5 9.5v33q0 59 -41 96t-96 37q-35 0 -88 -18.5t-102 -69.5l-183 127q39 49 89.5 82t102.5 51t103.5 25.5t94.5 7.5q86 0 157.5 -21.5t123.5 -67.5t81 -117t29 -171v-635h-246l-12 74 q-43 -45 -109.5 -71t-146.5 -26q-66 0 -128.5 21.5t-109.5 61.5t-75.5 98.5t-28.5 132.5zM112 1180q35 104 101.5 169.5t158.5 65.5q41 0 81 -18.5t75 -40.5q35 -23 65.5 -40.5t55.5 -17.5q20 0 56 24t71 105l139 -71q-37 -111 -102.5 -174.5t-157.5 -63.5q-43 0 -83 19.5 t-75 42.5t-64.5 39t-54.5 16q-23 0 -56.5 -23.5t-67.5 -105.5zM330 297q0 -49 36.5 -79t108.5 -30q51 0 99.5 20.5t82.5 51.5v201q-41 -2 -87 -7t-87 -14q-86 -16 -119.5 -56t-33.5 -87z" />
<glyph unicode="&#xe4;" horiz-adv-x="1052" d="M70 291q0 74 30.5 130t81.5 95t118 63.5t140 36.5q51 10 112.5 15.5t102.5 9.5v33q0 59 -41 96t-96 37q-35 0 -88 -18.5t-102 -69.5l-183 127q39 49 89.5 82t102.5 51t103.5 25.5t94.5 7.5q86 0 157.5 -21.5t123.5 -67.5t81 -117t29 -171v-635h-246l-12 74 q-43 -45 -109.5 -71t-146.5 -26q-66 0 -128.5 21.5t-109.5 61.5t-75.5 98.5t-28.5 132.5zM197 1292q0 59 37 102.5t96 43.5q57 0 95 -43t38 -103q0 -57 -38 -101t-95 -44q-59 0 -96 44t-37 101zM330 297q0 -49 36.5 -79t108.5 -30q51 0 99.5 20.5t82.5 51.5v201 q-41 -2 -87 -7t-87 -14q-86 -16 -119.5 -56t-33.5 -87zM582 1292q0 59 38 102.5t95 43.5q59 0 96 -43t37 -103q0 -57 -37 -101t-96 -44q-57 0 -95 44t-38 101z" />
<glyph unicode="&#xe5;" horiz-adv-x="1052" d="M70 291q0 74 30.5 130t81.5 95t118 63.5t140 36.5q51 10 112.5 15.5t102.5 9.5v33q0 59 -41 96t-96 37q-35 0 -88 -18.5t-102 -69.5l-183 127q39 49 89.5 82t102.5 51t103.5 25.5t94.5 7.5q86 0 157.5 -21.5t123.5 -67.5t81 -117t29 -171v-635h-246l-12 74 q-43 -45 -109.5 -71t-146.5 -26q-66 0 -128.5 21.5t-109.5 61.5t-75.5 98.5t-28.5 132.5zM314 1305q0 41 13 80.5t39.5 71.5t66.5 51.5t94 19.5q53 0 94 -19.5t67.5 -50.5t40 -70.5t13.5 -80.5t-13.5 -81t-40 -72t-67.5 -51.5t-94 -19.5q-54 1 -95 19q-39 20 -65.5 51 t-39.5 71t-13 81zM330 297q0 -49 36.5 -79t108.5 -30q51 0 99.5 20.5t82.5 51.5v201q-41 -2 -87 -7t-87 -14q-86 -16 -119.5 -56t-33.5 -87zM447 1307q0 -41 20 -68q23 -27 60 -27q39 0 60.5 27t21.5 68t-21.5 67.5t-60.5 26.5q-37 0 -58.5 -26.5t-21.5 -67.5z" />
<glyph unicode="&#xe6;" horiz-adv-x="1628" d="M70 303q0 100 57 163.5t144 100.5t189.5 52.5t192.5 19.5v49q0 57 -40 88t-107 31q-53 0 -103.5 -29.5t-83.5 -64.5l-167 141q57 70 148 114t214 44q207 0 305 -125q47 55 119 90t195 35q193 0 311.5 -144.5t122.5 -437.5h-643q2 -59 20.5 -103t49 -73t70.5 -43t83 -14 q70 0 126 27.5t101 99.5l189 -113q-152 -233 -412 -234q-123 0 -210 39t-140 107q-63 -70 -146.5 -108t-222.5 -38q-74 0 -139.5 20.5t-114.5 61.5t-78.5 101.5t-29.5 142.5zM336 295q0 -53 35 -82t96 -29q31 0 63.5 9.5t60 29t46 48t18.5 65.5v110q-66 -2 -123 -10 t-101 -26.5t-69.5 -46t-25.5 -68.5zM928 614h368q-4 84 -51 138.5t-123 54.5q-82 0 -131 -54.5t-63 -138.5z" />
<glyph unicode="&#xe7;" horiz-adv-x="997" d="M72 489q0 131 39 229.5t103.5 164t148 97.5t174.5 32q90 0 160.5 -25.5t122.5 -66.5t86 -92.5t52 -102.5l-210 -104q-35 98 -87.5 138t-117.5 40q-41 0 -78 -18.5t-66.5 -55.5t-47 -94.5t-17.5 -136.5q0 -141 62.5 -219t162.5 -78q78 0 127 38.5t88 110.5l201 -108 q-63 -133 -171 -197t-251 -64q-94 0 -181 33t-153.5 97.5t-106.5 159.5t-40 222zM321 -371l127 281h238l-176 -281h-189z" />
<glyph unicode="&#xe8;" horiz-adv-x="1075" d="M72 494q0 125 37.5 221t103.5 161.5t153 100.5t185 35q207 0 333 -144.5t130 -437.5h-674q10 -125 76.5 -180t148.5 -55q72 0 129.5 25.5t118.5 111.5l199 -121q-84 -129 -194.5 -181.5t-260.5 -52.5q-98 0 -186 31t-154.5 95.5t-105.5 160.5t-39 230zM227 1331l129 170 l412 -289l-72 -110zM346 612h395q-8 98 -66.5 147.5t-123.5 49.5q-35 0 -68.5 -13.5t-62.5 -39t-48.5 -62.5t-25.5 -82z" />
<glyph unicode="&#xe9;" horiz-adv-x="1075" d="M72 494q0 125 37.5 221t103.5 161.5t153 100.5t185 35q207 0 333 -144.5t130 -437.5h-674q10 -125 76.5 -180t148.5 -55q72 0 129.5 25.5t118.5 111.5l199 -121q-84 -129 -194.5 -181.5t-260.5 -52.5q-98 0 -186 31t-154.5 95.5t-105.5 160.5t-39 230zM321 1212l412 289 l129 -170l-467 -229zM346 612h395q-8 98 -66.5 147.5t-123.5 49.5q-35 0 -68.5 -13.5t-62.5 -39t-48.5 -62.5t-25.5 -82z" />
<glyph unicode="&#xea;" horiz-adv-x="1075" d="M72 494q0 125 37.5 221t103.5 161.5t153 100.5t185 35q207 0 333 -144.5t130 -437.5h-674q10 -125 76.5 -180t148.5 -55q72 0 129.5 25.5t118.5 111.5l199 -121q-84 -129 -194.5 -181.5t-260.5 -52.5q-98 0 -186 31t-154.5 95.5t-105.5 160.5t-39 230zM194 1206l248 267 h197l248 -271l-142 -86l-206 197l-207 -199zM346 612h395q-8 98 -66.5 147.5t-123.5 49.5q-35 0 -68.5 -13.5t-62.5 -39t-48.5 -62.5t-25.5 -82z" />
<glyph unicode="&#xeb;" horiz-adv-x="1075" d="M72 494q0 125 37.5 221t103.5 161.5t153 100.5t185 35q207 0 333 -144.5t130 -437.5h-674q10 -125 76.5 -180t148.5 -55q72 0 129.5 25.5t118.5 111.5l199 -121q-84 -129 -194.5 -181.5t-260.5 -52.5q-98 0 -186 31t-154.5 95.5t-105.5 160.5t-39 230zM227 1292 q0 59 37 102.5t96 43.5q57 0 95 -43t38 -103q0 -57 -38 -101t-95 -44q-59 0 -96 44t-37 101zM346 612h395q-8 98 -66.5 147.5t-123.5 49.5q-35 0 -68.5 -13.5t-62.5 -39t-48.5 -62.5t-25.5 -82zM612 1292q0 59 38 102.5t95 43.5q59 0 96 -43t37 -103q0 -57 -37 -101t-96 -44 q-57 0 -95 44t-38 101z" />
<glyph unicode="&#xec;" horiz-adv-x="534" d="M-78 1331l129 170l412 -289l-72 -110zM133 0v977h268v-977h-268z" />
<glyph unicode="&#xed;" horiz-adv-x="534" d="M73 1212l412 289l129 -170l-467 -229zM133 0v977h268v-977h-268z" />
<glyph unicode="&#xee;" horiz-adv-x="534" d="M-76 1206l248 267h197l248 -271l-142 -86l-206 197l-207 -199zM133 0v977h268v-977h-268z" />
<glyph unicode="&#xef;" horiz-adv-x="534" d="M-57 1292q0 59 37 102.5t96 43.5q57 0 95 -43t38 -103q0 -57 -38 -101t-95 -44q-59 0 -96 44t-37 101zM133 0v977h268v-977h-268zM328 1292q0 59 38 102.5t95 43.5q59 0 96 -43t37 -103q0 -57 -37 -101t-96 -44q-57 0 -95 44t-38 101z" />
<glyph unicode="&#xf0;" horiz-adv-x="1165" d="M80 492q0 104 28.5 196t85 162t140.5 110.5t192 40.5q53 0 100.5 -12t88.5 -39q-25 51 -69 96.5t-99 80t-117.5 58t-124.5 34.5l51 174q90 -14 157 -35t132 -55l119 151l156 -119l-113 -145q76 -66 129 -144.5t87 -166.5t49 -181.5t15 -187.5q0 -117 -32.5 -214t-96 -168 t-157.5 -109.5t-217 -38.5q-100 0 -191.5 31.5t-161 96t-110.5 161t-41 223.5zM340 494q0 -74 20.5 -129.5t54.5 -93.5t75.5 -56t87.5 -18q43 0 85 18t74.5 56t53 95.5t20.5 135.5q0 59 -14 127q-12 68 -29 106q-96 51 -188 51q-104 0 -172 -72.5t-68 -219.5z" />
<glyph unicode="&#xf1;" horiz-adv-x="1189" d="M133 0v987h244l12 -78q61 49 141 76t160 27q82 0 150.5 -23.5t118 -75t77 -133.5t27.5 -196v-584h-268v563q0 113 -49.5 174.5t-137.5 61.5q-61 0 -114.5 -31t-92.5 -68v-700h-268zM182 1180q35 104 101.5 169.5t158.5 65.5q41 0 81 -18.5t75 -40.5q35 -23 65.5 -40.5 t55.5 -17.5q20 0 56 24t71 105l139 -71q-37 -111 -102.5 -174.5t-157.5 -63.5q-43 0 -83 19.5t-75 42.5t-64.5 39t-54.5 16q-23 0 -56.5 -23.5t-67.5 -105.5z" />
<glyph unicode="&#xf2;" horiz-adv-x="1138" d="M72 498q0 96 30.5 188t93 165t155.5 117t218 44t218.5 -44t156 -117t93 -165t30.5 -188t-30.5 -189.5t-93 -167t-156 -119t-218.5 -45.5q-125 1 -219 46q-92 45 -154.5 118.5t-93 166.5t-30.5 190zM202 1331l129 170l412 -289l-72 -110zM334 498q0 -63 15 -117.5 t44 -95.5t73 -64.5t103 -23.5q57 0 101.5 23.5t74 64.5t45 95t15.5 118q0 61 -15.5 116.5t-45 95.5t-73.5 63.5t-102 23.5q-57 0 -101 -23.5t-73.5 -63.5t-45 -95.5t-15.5 -116.5z" />
<glyph unicode="&#xf3;" horiz-adv-x="1138" d="M72 498q0 96 30.5 188t93 165t155.5 117t218 44t218.5 -44t156 -117t93 -165t30.5 -188t-30.5 -189.5t-93 -167t-156 -119t-218.5 -45.5q-125 1 -219 46q-92 45 -154.5 118.5t-93 166.5t-30.5 190zM323 1212l412 289l129 -170l-467 -229zM334 498q0 -63 15 -117.5 t44 -95.5t73 -64.5t103 -23.5q57 0 101.5 23.5t74 64.5t45 95t15.5 118q0 61 -15.5 116.5t-45 95.5t-73.5 63.5t-102 23.5q-57 0 -101 -23.5t-73.5 -63.5t-45 -95.5t-15.5 -116.5z" />
<glyph unicode="&#xf4;" horiz-adv-x="1138" d="M72 498q0 96 30.5 188t93 165t155.5 117t218 44t218.5 -44t156 -117t93 -165t30.5 -188t-30.5 -189.5t-93 -167t-156 -119t-218.5 -45.5q-125 1 -219 46q-92 45 -154.5 118.5t-93 166.5t-30.5 190zM215 1206l248 267h197l248 -271l-142 -86l-206 197l-207 -199zM334 498 q0 -63 15 -117.5t44 -95.5t73 -64.5t103 -23.5q57 0 101.5 23.5t74 64.5t45 95t15.5 118q0 61 -15.5 116.5t-45 95.5t-73.5 63.5t-102 23.5q-57 0 -101 -23.5t-73.5 -63.5t-45 -95.5t-15.5 -116.5z" />
<glyph unicode="&#xf5;" horiz-adv-x="1138" d="M72 498q0 96 30.5 188t93 165t155.5 117t218 44t218.5 -44t156 -117t93 -165t30.5 -188t-30.5 -189.5t-93 -167t-156 -119t-218.5 -45.5q-125 1 -219 46q-92 45 -154.5 118.5t-93 166.5t-30.5 190zM133 1180q35 104 101.5 169.5t158.5 65.5q41 0 81 -18.5t75 -40.5 q35 -23 65.5 -40.5t55.5 -17.5q20 0 56 24t71 105l139 -71q-37 -111 -102.5 -174.5t-157.5 -63.5q-43 0 -83 19.5t-75 42.5t-64.5 39t-54.5 16q-23 0 -56.5 -23.5t-67.5 -105.5zM334 498q0 -63 15 -117.5t44 -95.5t73 -64.5t103 -23.5q57 0 101.5 23.5t74 64.5t45 95 t15.5 118q0 61 -15.5 116.5t-45 95.5t-73.5 63.5t-102 23.5q-57 0 -101 -23.5t-73.5 -63.5t-45 -95.5t-15.5 -116.5z" />
<glyph unicode="&#xf6;" horiz-adv-x="1138" d="M72 498q0 96 30.5 188t93 165t155.5 117t218 44t218.5 -44t156 -117t93 -165t30.5 -188t-30.5 -189.5t-93 -167t-156 -119t-218.5 -45.5q-125 1 -219 46q-92 45 -154.5 118.5t-93 166.5t-30.5 190zM236 1292q0 59 37 102.5t96 43.5q57 0 95 -43t38 -103q0 -57 -38 -101 t-95 -44q-59 0 -96 44t-37 101zM334 498q0 -63 15 -117.5t44 -95.5t73 -64.5t103 -23.5q57 0 101.5 23.5t74 64.5t45 95t15.5 118q0 61 -15.5 116.5t-45 95.5t-73.5 63.5t-102 23.5q-57 0 -101 -23.5t-73.5 -63.5t-45 -95.5t-15.5 -116.5zM621 1292q0 59 38 102.5t95 43.5 q59 0 96 -43t37 -103q0 -57 -37 -101t-96 -44q-57 0 -95 44t-38 101z" />
<glyph unicode="&#xf7;" d="M47 563v225h1010v-225h-1010zM389 309q0 63 47 111.5t119 48.5t118 -48t46 -112q0 -66 -46 -114t-118 -48t-119 48.5t-47 113.5zM389 1069q0 31 12.5 60.5t35 52t52 36t66.5 13.5q72 0 118 -49t46 -113q0 -63 -46 -112.5t-118 -49.5q-37 1 -68 13q-29 14 -51 36.5 t-34.5 52t-12.5 60.5z" />
<glyph unicode="&#xf8;" horiz-adv-x="1138" d="M72 498q0 96 30.5 188t93 165t155.5 117t218 44q66 0 121 -12.5t103 -34.5l77 114l142 -96l-80 -119q68 -74 101.5 -169t33.5 -197q0 -96 -30.5 -189.5t-93 -167t-156 -119t-218.5 -45.5q-113 0 -207 39l-83 -125l-142 97l84 125q-76 76 -112.5 177t-36.5 208zM332 498 q0 -100 30 -174l308 456h2q-23 10 -48.5 15.5t-54.5 5.5q-57 0 -101 -23.5t-75 -65.5t-46 -97.5t-15 -116.5zM494 203q31 -10 75 -10q57 0 101.5 23.5t75 65.5t46 97t15.5 119q0 39 -6 76.5t-15 68.5z" />
<glyph unicode="&#xf9;" horiz-adv-x="1185" d="M127 399v588h268v-561q0 -102 39 -165.5t133 -63.5q78 0 131.5 29.5t85.5 56.5v704h269v-987h-246l-10 78q-72 -57 -148 -77.5t-149 -20.5q-180 0 -276.5 104t-96.5 315zM211 1331l129 170l412 -289l-72 -110z" />
<glyph unicode="&#xfa;" horiz-adv-x="1185" d="M127 399v588h268v-561q0 -102 39 -165.5t133 -63.5q78 0 131.5 29.5t85.5 56.5v704h269v-987h-246l-10 78q-72 -57 -148 -77.5t-149 -20.5q-180 0 -276.5 104t-96.5 315zM403 1212l412 289l129 -170l-467 -229z" />
<glyph unicode="&#xfb;" horiz-adv-x="1185" d="M127 399v588h268v-561q0 -102 39 -165.5t133 -63.5q78 0 131.5 29.5t85.5 56.5v704h269v-987h-246l-10 78q-72 -57 -148 -77.5t-149 -20.5q-180 0 -276.5 104t-96.5 315zM241 1206l248 267h197l248 -271l-142 -86l-206 197l-207 -199z" />
<glyph unicode="&#xfc;" horiz-adv-x="1185" d="M127 399v588h268v-561q0 -102 39 -165.5t133 -63.5q78 0 131.5 29.5t85.5 56.5v704h269v-987h-246l-10 78q-72 -57 -148 -77.5t-149 -20.5q-180 0 -276.5 104t-96.5 315zM266 1292q0 59 37 102.5t96 43.5q57 0 95 -43t38 -103q0 -57 -38 -101t-95 -44q-59 0 -96 44 t-37 101zM651 1292q0 59 38 102.5t95 43.5q59 0 96 -43t37 -103q0 -57 -37 -101t-96 -44q-57 0 -95 44t-38 101z" />
<glyph unicode="&#xfd;" horiz-adv-x="1058" d="M0 987h285l258 -674l245 674h271l-512 -1220q-23 -51 -53.5 -86t-67.5 -55.5t-79 -29t-83 -8.5q-53 0 -117.5 13.5t-132.5 42.5l84 190q39 -18 77 -26.5t65 -8.5q25 0 49 14.5t45 57.5l76 170zM329 1212l412 289l129 -170l-467 -229z" />
<glyph unicode="&#xfe;" horiz-adv-x="1189" d="M150 -387v1753h266v-430q53 39 111.5 56.5t123.5 17.5q113 0 199 -43t143.5 -115t87 -167t29.5 -200q0 -121 -44 -215t-119 -159.5t-176 -99.5t-218 -34q-72 0 -135 19v-383h-268zM416 215q23 -8 49.5 -13t56.5 -5q66 0 125.5 16t103.5 50t70.5 88.5t26.5 129.5 q0 150 -70.5 233t-187.5 83q-49 0 -94 -14.5t-80 -34.5v-533z" />
<glyph unicode="&#xff;" horiz-adv-x="1058" d="M0 987h285l258 -674l245 674h271l-512 -1220q-23 -51 -53.5 -86t-67.5 -55.5t-79 -29t-83 -8.5q-53 0 -117.5 13.5t-132.5 42.5l84 190q39 -18 77 -26.5t65 -8.5q25 0 49 14.5t45 57.5l76 170zM211 1292q0 59 37 102.5t96 43.5q57 0 95 -43t38 -103q0 -57 -38 -101 t-95 -44q-59 0 -96 44t-37 101zM596 1292q0 59 38 102.5t95 43.5q59 0 96 -43t37 -103q0 -57 -37 -101t-96 -44q-57 0 -95 44t-38 101z" />
<glyph unicode="&#x152;" horiz-adv-x="1937" d="M92 684q0 160 53.5 286t146.5 214t222 135t283 47h1036v-248h-616v-311h501v-248h-501v-311h663v-248h-1083q-154 0 -283 49t-222 138t-146.5 215t-53.5 282zM371 684q0 -96 32.5 -176t88 -138.5t130 -90t160.5 -31.5h158v870h-158q-86 0 -161.5 -29.5t-131 -86 t-87 -137.5t-31.5 -181z" />
<glyph unicode="&#x153;" horiz-adv-x="1728" d="M72 496q0 113 34.5 208t98 163.5t151.5 106.5t193 38q135 0 212 -39t126 -105q27 33 57.5 59.5t68.5 45t86 29t111 10.5q121 0 207 -44t141.5 -122t82 -184.5t26.5 -231.5h-645q14 -125 73.5 -179t151.5 -54q53 0 106.5 24.5t112.5 112.5l199 -121 q-80 -131 -191.5 -183.5t-222.5 -52.5q-225 0 -362 146q-68 -72 -151 -109t-193 -37q-104 0 -191.5 39t-150 108t-97 164t-34.5 208zM336 498q0 -80 18 -137.5t47 -94.5t67 -54t77 -17q57 0 97 26.5t64.5 69.5t36 98t11.5 113q0 78 -18.5 133t-48.5 91t-66.5 53.5 t-75.5 17.5t-76 -17.5t-66.5 -53.5t-48 -92t-18.5 -136zM1024 614h375q-2 31 -13.5 65t-33 63.5t-56 48t-82.5 18.5q-41 0 -74.5 -17.5t-58 -46t-40 -63.5t-17.5 -68z" />
<glyph unicode="&#x178;" horiz-adv-x="1189" d="M0 1366h307l297 -543l283 543h303l-453 -817v-549h-276v549zM281 1632q0 59 37 102.5t96 43.5q57 0 95 -43t38 -103q0 -57 -38 -101t-95 -44q-59 0 -96 44t-37 101zM666 1632q0 59 38 102.5t95 43.5q59 0 96 -43t37 -103q0 -57 -37 -101t-96 -44q-57 0 -95 44t-38 101z " />
<glyph unicode="&#x2c6;" horiz-adv-x="905" d="M106 1206l248 267h197l248 -271l-142 -86l-206 197l-207 -199z" />
<glyph unicode="&#x2dc;" horiz-adv-x="905" d="M51 1180q35 104 101.5 169.5t158.5 65.5q41 0 81 -18.5t75 -40.5q35 -23 65.5 -40.5t55.5 -17.5q20 0 56 24t71 105l139 -71q-37 -111 -102.5 -174.5t-157.5 -63.5q-43 0 -83 19.5t-75 42.5t-64.5 39t-54.5 16q-23 0 -56.5 -23.5t-67.5 -105.5z" />
<glyph unicode="&#x2000;" horiz-adv-x="920" />
<glyph unicode="&#x2001;" horiz-adv-x="1841" />
<glyph unicode="&#x2002;" horiz-adv-x="920" />
<glyph unicode="&#x2003;" horiz-adv-x="1841" />
<glyph unicode="&#x2004;" horiz-adv-x="613" />
<glyph unicode="&#x2005;" horiz-adv-x="460" />
<glyph unicode="&#x2006;" horiz-adv-x="306" />
<glyph unicode="&#x2007;" horiz-adv-x="306" />
<glyph unicode="&#x2008;" horiz-adv-x="230" />
<glyph unicode="&#x2009;" horiz-adv-x="368" />
<glyph unicode="&#x200a;" horiz-adv-x="102" />
<glyph unicode="&#x2010;" horiz-adv-x="675" d="M78 412v243h520v-243h-520z" />
<glyph unicode="&#x2011;" horiz-adv-x="675" d="M78 412v243h520v-243h-520z" />
<glyph unicode="&#x2012;" horiz-adv-x="675" d="M78 412v243h520v-243h-520z" />
<glyph unicode="&#x2013;" horiz-adv-x="1132" d="M0 418v192h1133v-192h-1133z" />
<glyph unicode="&#x2014;" horiz-adv-x="2265" d="M0 418v192h2265v-192h-2265z" />
<glyph unicode="&#x2018;" horiz-adv-x="471" d="M78 1204q0 68 43 115t108 47q74 0 111 -52t37 -114q0 -41 -17.5 -78t-44.5 -57q20 -25 64.5 -49.5t91.5 -34.5l-35 -107q-96 25 -163.5 63t-110.5 83t-63.5 93t-20.5 91z" />
<glyph unicode="&#x2019;" horiz-adv-x="471" d="M0 981q47 10 91 34.5t65 49.5q-29 20 -45.5 57t-16.5 78q0 61 37 113.5t111 52.5q66 0 108.5 -47t42.5 -115q0 -43 -20.5 -91t-63.5 -93t-111.5 -83t-162.5 -63z" />
<glyph unicode="&#x201a;" horiz-adv-x="471" d="M0 -111q47 10 91 35t65 49q-29 20 -45.5 57.5t-16.5 78.5q0 61 37 113t111 52q66 0 108.5 -47t42.5 -114q0 -43 -20.5 -91.5t-63.5 -92.5t-111.5 -83t-162.5 -63z" />
<glyph unicode="&#x201c;" horiz-adv-x="860" d="M70 1204q0 68 43 115t108 47q74 0 111 -52t37 -114q0 -41 -17.5 -78t-44.5 -57q20 -25 64.5 -49.5t91.5 -34.5l-35 -107q-96 25 -163.5 63t-110.5 83t-63.5 93t-20.5 91zM475 1204q0 68 43 115t109 47q74 0 110.5 -52t36.5 -114q0 -41 -16.5 -78t-44.5 -57 q20 -25 64 -49.5t91 -34.5l-34 -107q-96 25 -164 63t-111 83t-63.5 93t-20.5 91z" />
<glyph unicode="&#x201d;" horiz-adv-x="860" d="M-8 981q47 10 91 34.5t64 49.5q-29 20 -45 57t-16 78q0 61 37 113.5t110 52.5q66 0 109 -47t43 -115q0 -43 -20.5 -91t-63.5 -93t-111.5 -83t-162.5 -63zM397 981q47 10 91 34.5t65 49.5q-27 20 -44 57t-17 78q0 61 36.5 113.5t110.5 52.5q66 0 109 -47t43 -115 q0 -43 -20.5 -91t-63.5 -93t-111 -83t-164 -63z" />
<glyph unicode="&#x201e;" horiz-adv-x="860" d="M-8 -111q47 10 91 35t64 49q-29 20 -45 57.5t-16 78.5q0 61 37 113t110 52q66 0 109 -47t43 -114q0 -43 -20.5 -91.5t-63.5 -92.5t-111.5 -83t-162.5 -63zM397 -111q47 10 91 35t65 49q-27 20 -44 57.5t-17 78.5q0 61 36.5 113t110.5 52q66 0 109 -47t43 -114 q0 -43 -20.5 -91.5t-63.5 -92.5t-111 -83t-164 -63z" />
<glyph unicode="&#x2022;" horiz-adv-x="1052" d="M102 788q0 86 34 163t91.5 134.5t135 91t163.5 33.5t164 -33.5t135.5 -91t91 -134.5t33.5 -163t-33.5 -162.5t-91 -134t-135.5 -91t-164 -33.5q-86 -1 -164 32q-78 35 -135 92.5t-91 134t-34 162.5z" />
<glyph unicode="&#x2026;" horiz-adv-x="1404" d="M78 125q0 57 37 103t114 46q74 0 111 -46t37 -103q0 -55 -36 -101.5t-112 -46.5q-78 0 -114.5 46.5t-36.5 101.5zM553 125q0 57 37 103t115 46q74 0 110.5 -46t36.5 -103q0 -55 -35.5 -101.5t-111.5 -46.5q-78 0 -115 46.5t-37 101.5zM1030 125q0 57 37 103t113 46 t111.5 -46t35.5 -103q0 -55 -35.5 -101.5t-111.5 -46.5q-78 0 -114 46.5t-36 101.5z" />
<glyph unicode="&#x202f;" horiz-adv-x="368" />
<glyph unicode="&#x2039;" horiz-adv-x="708" d="M31 512l424 434l176 -139l-293 -283l321 -276l-163 -156z" />
<glyph unicode="&#x203a;" horiz-adv-x="708" d="M49 248l322 276l-293 283l176 139l424 -434l-465 -420z" />
<glyph unicode="&#x205f;" horiz-adv-x="460" />
<glyph unicode="&#x20ac;" d="M29 575v232h131q10 117 46 221.5t99.5 183t154.5 123.5t214 45q164 0 266 -73.5t168 -233.5l-234 -90q-39 94 -88 126t-108 32q-51 0 -89 -28t-64.5 -74t-41 -106.5t-18.5 -125.5h297v-232h-299q2 -74 17.5 -140t43 -115.5t68.5 -78t98 -28.5q63 0 112.5 35t106.5 137 l201 -119q-63 -137 -163.5 -213t-268.5 -76q-139 0 -234.5 49.5t-157 132.5t-91 190.5t-37.5 225.5h-129z" />
<glyph unicode="&#x2122;" horiz-adv-x="1345" d="M39 1204v162h485v-162h-164v-426h-157v426h-164zM604 778v588h189l131 -295l120 295h187v-588h-154v344l-137 -348h-31l-151 342v-338h-154z" />
<glyph unicode="&#xe000;" horiz-adv-x="983" d="M0 0v983h983v-983h-983z" />
</font>
</defs>
</svg>
